<mxfile host="65bd71144e">
    <diagram id="S6L31jOvDiZtcp9Sf2Wv" name="Page-1">
        <mxGraphModel dx="874" dy="1902" grid="1" gridSize="10" guides="1" tooltips="1" connect="1" arrows="1" fold="1" page="1" pageScale="1" pageWidth="850" pageHeight="1100" math="0" shadow="0">
            <root>
                <mxCell id="0"/>
                <mxCell id="1" parent="0"/>
                <mxCell id="39" value="" style="shape=table;startSize=0;container=1;collapsible=0;childLayout=tableLayout;fontStyle=1;align=center;fontSize=20;" parent="1" vertex="1">
                    <mxGeometry x="89" y="-1080" width="767" height="2362" as="geometry"/>
                </mxCell>
                <mxCell id="3LBCeSW4Zflb0pGlj7fX-219" style="shape=tableRow;horizontal=0;startSize=0;swimlaneHead=0;swimlaneBody=0;top=0;left=0;bottom=0;right=0;collapsible=0;dropTarget=0;fillColor=none;points=[[0,0.5],[1,0.5]];portConstraint=eastwest;" parent="39" vertex="1">
                    <mxGeometry width="767" height="50" as="geometry"/>
                </mxCell>
                <mxCell id="3LBCeSW4Zflb0pGlj7fX-220" style="shape=partialRectangle;html=1;whiteSpace=wrap;connectable=0;fillColor=none;top=0;left=0;bottom=0;right=0;overflow=hidden;" parent="3LBCeSW4Zflb0pGlj7fX-219" vertex="1">
                    <mxGeometry width="300" height="50" as="geometry">
                        <mxRectangle width="300" height="50" as="alternateBounds"/>
                    </mxGeometry>
                </mxCell>
                <mxCell id="3LBCeSW4Zflb0pGlj7fX-221" value="API ROUTES" style="shape=partialRectangle;html=1;whiteSpace=wrap;connectable=0;fillColor=none;top=0;left=0;bottom=0;right=0;overflow=hidden;fontSize=32;" parent="3LBCeSW4Zflb0pGlj7fX-219" vertex="1">
                    <mxGeometry x="300" width="234" height="50" as="geometry">
                        <mxRectangle width="234" height="50" as="alternateBounds"/>
                    </mxGeometry>
                </mxCell>
                <mxCell id="3LBCeSW4Zflb0pGlj7fX-222" style="shape=partialRectangle;html=1;whiteSpace=wrap;connectable=0;fillColor=none;top=0;left=0;bottom=0;right=0;overflow=hidden;" parent="3LBCeSW4Zflb0pGlj7fX-219" vertex="1">
                    <mxGeometry x="534" width="233" height="50" as="geometry">
                        <mxRectangle width="233" height="50" as="alternateBounds"/>
                    </mxGeometry>
                </mxCell>
                <mxCell id="40" value="" style="shape=tableRow;horizontal=0;startSize=0;swimlaneHead=0;swimlaneBody=0;top=0;left=0;bottom=0;right=0;collapsible=0;dropTarget=0;fillColor=none;points=[[0,0.5],[1,0.5]];portConstraint=eastwest;" parent="39" vertex="1">
                    <mxGeometry y="50" width="767" height="50" as="geometry"/>
                </mxCell>
                <mxCell id="41" value="&lt;font style=&quot;font-size: 14px;&quot;&gt;Route&lt;/font&gt;" style="shape=partialRectangle;html=1;whiteSpace=wrap;connectable=0;fillColor=none;top=0;left=0;bottom=0;right=0;overflow=hidden;" parent="40" vertex="1">
                    <mxGeometry width="300" height="50" as="geometry">
                        <mxRectangle width="300" height="50" as="alternateBounds"/>
                    </mxGeometry>
                </mxCell>
                <mxCell id="42" value="&lt;font style=&quot;font-size: 14px;&quot;&gt;HTTP Verb&lt;/font&gt;" style="shape=partialRectangle;html=1;whiteSpace=wrap;connectable=0;fillColor=none;top=0;left=0;bottom=0;right=0;overflow=hidden;" parent="40" vertex="1">
                    <mxGeometry x="300" width="234" height="50" as="geometry">
                        <mxRectangle width="234" height="50" as="alternateBounds"/>
                    </mxGeometry>
                </mxCell>
                <mxCell id="43" value="&lt;font style=&quot;font-size: 14px;&quot;&gt;Purpose&lt;/font&gt;" style="shape=partialRectangle;html=1;whiteSpace=wrap;connectable=0;fillColor=none;top=0;left=0;bottom=0;right=0;overflow=hidden;" parent="40" vertex="1">
                    <mxGeometry x="534" width="233" height="50" as="geometry">
                        <mxRectangle width="233" height="50" as="alternateBounds"/>
                    </mxGeometry>
                </mxCell>
                <mxCell id="44" value="" style="shape=tableRow;horizontal=0;startSize=0;swimlaneHead=0;swimlaneBody=0;top=0;left=0;bottom=0;right=0;collapsible=0;dropTarget=0;fillColor=none;points=[[0,0.5],[1,0.5]];portConstraint=eastwest;" parent="39" vertex="1">
                    <mxGeometry y="100" width="767" height="25" as="geometry"/>
                </mxCell>
                <mxCell id="45" value="&lt;span style=&quot;font-size: 16px;&quot;&gt;/users/:id/events&lt;/span&gt;" style="shape=partialRectangle;html=1;whiteSpace=wrap;connectable=0;fillColor=none;top=0;left=0;bottom=0;right=0;overflow=hidden;" parent="44" vertex="1">
                    <mxGeometry width="300" height="25" as="geometry">
                        <mxRectangle width="300" height="25" as="alternateBounds"/>
                    </mxGeometry>
                </mxCell>
                <mxCell id="46" value="&lt;font style=&quot;font-size: 14px;&quot;&gt;GET&lt;/font&gt;" style="shape=partialRectangle;html=1;whiteSpace=wrap;connectable=0;fillColor=none;top=0;left=0;bottom=0;right=0;overflow=hidden;" parent="44" vertex="1">
                    <mxGeometry x="300" width="234" height="25" as="geometry">
                        <mxRectangle width="234" height="25" as="alternateBounds"/>
                    </mxGeometry>
                </mxCell>
                <mxCell id="47" value="&lt;font style=&quot;font-size: 14px;&quot;&gt;show all user events&lt;/font&gt;" style="shape=partialRectangle;html=1;whiteSpace=wrap;connectable=0;fillColor=none;top=0;left=0;bottom=0;right=0;overflow=hidden;" parent="44" vertex="1">
                    <mxGeometry x="534" width="233" height="25" as="geometry">
                        <mxRectangle width="233" height="25" as="alternateBounds"/>
                    </mxGeometry>
                </mxCell>
                <mxCell id="48" value="" style="shape=tableRow;horizontal=0;startSize=0;swimlaneHead=0;swimlaneBody=0;top=0;left=0;bottom=0;right=0;collapsible=0;dropTarget=0;fillColor=none;points=[[0,0.5],[1,0.5]];portConstraint=eastwest;" parent="39" vertex="1">
                    <mxGeometry y="125" width="767" height="26" as="geometry"/>
                </mxCell>
                <mxCell id="49" value="&lt;span style=&quot;font-size: 16px;&quot;&gt;/users/:id/events&lt;/span&gt;" style="shape=partialRectangle;html=1;whiteSpace=wrap;connectable=0;fillColor=none;top=0;left=0;bottom=0;right=0;overflow=hidden;" parent="48" vertex="1">
                    <mxGeometry width="300" height="26" as="geometry">
                        <mxRectangle width="300" height="26" as="alternateBounds"/>
                    </mxGeometry>
                </mxCell>
                <mxCell id="50" value="&lt;font style=&quot;font-size: 14px;&quot;&gt;POST&lt;/font&gt;" style="shape=partialRectangle;html=1;whiteSpace=wrap;connectable=0;fillColor=none;top=0;left=0;bottom=0;right=0;overflow=hidden;" parent="48" vertex="1">
                    <mxGeometry x="300" width="234" height="26" as="geometry">
                        <mxRectangle width="234" height="26" as="alternateBounds"/>
                    </mxGeometry>
                </mxCell>
                <mxCell id="51" value="&lt;font style=&quot;font-size: 14px;&quot;&gt;post a user event&lt;/font&gt;" style="shape=partialRectangle;html=1;whiteSpace=wrap;connectable=0;fillColor=none;top=0;left=0;bottom=0;right=0;overflow=hidden;" parent="48" vertex="1">
                    <mxGeometry x="534" width="233" height="26" as="geometry">
                        <mxRectangle width="233" height="26" as="alternateBounds"/>
                    </mxGeometry>
                </mxCell>
                <mxCell id="3LBCeSW4Zflb0pGlj7fX-67" style="shape=tableRow;horizontal=0;startSize=0;swimlaneHead=0;swimlaneBody=0;top=0;left=0;bottom=0;right=0;collapsible=0;dropTarget=0;fillColor=none;points=[[0,0.5],[1,0.5]];portConstraint=eastwest;" parent="39" vertex="1">
                    <mxGeometry y="151" width="767" height="25" as="geometry"/>
                </mxCell>
                <mxCell id="3LBCeSW4Zflb0pGlj7fX-68" value="" style="shape=partialRectangle;html=1;whiteSpace=wrap;connectable=0;fillColor=none;top=0;left=0;bottom=0;right=0;overflow=hidden;" parent="3LBCeSW4Zflb0pGlj7fX-67" vertex="1">
                    <mxGeometry width="300" height="25" as="geometry">
                        <mxRectangle width="300" height="25" as="alternateBounds"/>
                    </mxGeometry>
                </mxCell>
                <mxCell id="3LBCeSW4Zflb0pGlj7fX-69" value="" style="shape=partialRectangle;html=1;whiteSpace=wrap;connectable=0;fillColor=none;top=0;left=0;bottom=0;right=0;overflow=hidden;" parent="3LBCeSW4Zflb0pGlj7fX-67" vertex="1">
                    <mxGeometry x="300" width="234" height="25" as="geometry">
                        <mxRectangle width="234" height="25" as="alternateBounds"/>
                    </mxGeometry>
                </mxCell>
                <mxCell id="3LBCeSW4Zflb0pGlj7fX-70" value="" style="shape=partialRectangle;html=1;whiteSpace=wrap;connectable=0;fillColor=none;top=0;left=0;bottom=0;right=0;overflow=hidden;" parent="3LBCeSW4Zflb0pGlj7fX-67" vertex="1">
                    <mxGeometry x="534" width="233" height="25" as="geometry">
                        <mxRectangle width="233" height="25" as="alternateBounds"/>
                    </mxGeometry>
                </mxCell>
                <mxCell id="3LBCeSW4Zflb0pGlj7fX-75" style="shape=tableRow;horizontal=0;startSize=0;swimlaneHead=0;swimlaneBody=0;top=0;left=0;bottom=0;right=0;collapsible=0;dropTarget=0;fillColor=none;points=[[0,0.5],[1,0.5]];portConstraint=eastwest;" parent="39" vertex="1">
                    <mxGeometry y="176" width="767" height="26" as="geometry"/>
                </mxCell>
                <mxCell id="3LBCeSW4Zflb0pGlj7fX-76" value="&lt;span style=&quot;font-size: 16px;&quot;&gt;/users/id/events/:id&lt;/span&gt;" style="shape=partialRectangle;html=1;whiteSpace=wrap;connectable=0;fillColor=none;top=0;left=0;bottom=0;right=0;overflow=hidden;" parent="3LBCeSW4Zflb0pGlj7fX-75" vertex="1">
                    <mxGeometry width="300" height="26" as="geometry">
                        <mxRectangle width="300" height="26" as="alternateBounds"/>
                    </mxGeometry>
                </mxCell>
                <mxCell id="3LBCeSW4Zflb0pGlj7fX-77" value="&lt;font style=&quot;font-size: 14px;&quot;&gt;GET&lt;/font&gt;" style="shape=partialRectangle;html=1;whiteSpace=wrap;connectable=0;fillColor=none;top=0;left=0;bottom=0;right=0;overflow=hidden;" parent="3LBCeSW4Zflb0pGlj7fX-75" vertex="1">
                    <mxGeometry x="300" width="234" height="26" as="geometry">
                        <mxRectangle width="234" height="26" as="alternateBounds"/>
                    </mxGeometry>
                </mxCell>
                <mxCell id="3LBCeSW4Zflb0pGlj7fX-78" value="show single user event" style="shape=partialRectangle;html=1;whiteSpace=wrap;connectable=0;fillColor=none;top=0;left=0;bottom=0;right=0;overflow=hidden;" parent="3LBCeSW4Zflb0pGlj7fX-75" vertex="1">
                    <mxGeometry x="534" width="233" height="26" as="geometry">
                        <mxRectangle width="233" height="26" as="alternateBounds"/>
                    </mxGeometry>
                </mxCell>
                <mxCell id="3LBCeSW4Zflb0pGlj7fX-79" style="shape=tableRow;horizontal=0;startSize=0;swimlaneHead=0;swimlaneBody=0;top=0;left=0;bottom=0;right=0;collapsible=0;dropTarget=0;fillColor=none;points=[[0,0.5],[1,0.5]];portConstraint=eastwest;" parent="39" vertex="1">
                    <mxGeometry y="202" width="767" height="26" as="geometry"/>
                </mxCell>
                <mxCell id="3LBCeSW4Zflb0pGlj7fX-80" value="&lt;meta charset=&quot;utf-8&quot;&gt;&lt;span style=&quot;color: rgb(240, 240, 240); font-family: Helvetica; font-size: 16px; font-style: normal; font-variant-ligatures: normal; font-variant-caps: normal; font-weight: 400; letter-spacing: normal; orphans: 2; text-align: center; text-indent: 0px; text-transform: none; widows: 2; word-spacing: 0px; -webkit-text-stroke-width: 0px; background-color: rgb(42, 37, 47); text-decoration-thickness: initial; text-decoration-style: initial; text-decoration-color: initial; float: none; display: inline !important;&quot;&gt;/users/id/events/:id&lt;/span&gt;" style="shape=partialRectangle;html=1;whiteSpace=wrap;connectable=0;fillColor=none;top=0;left=0;bottom=0;right=0;overflow=hidden;" parent="3LBCeSW4Zflb0pGlj7fX-79" vertex="1">
                    <mxGeometry width="300" height="26" as="geometry">
                        <mxRectangle width="300" height="26" as="alternateBounds"/>
                    </mxGeometry>
                </mxCell>
                <mxCell id="3LBCeSW4Zflb0pGlj7fX-81" value="&lt;font style=&quot;font-size: 14px;&quot;&gt;PATCH&lt;/font&gt;" style="shape=partialRectangle;html=1;whiteSpace=wrap;connectable=0;fillColor=none;top=0;left=0;bottom=0;right=0;overflow=hidden;" parent="3LBCeSW4Zflb0pGlj7fX-79" vertex="1">
                    <mxGeometry x="300" width="234" height="26" as="geometry">
                        <mxRectangle width="234" height="26" as="alternateBounds"/>
                    </mxGeometry>
                </mxCell>
                <mxCell id="3LBCeSW4Zflb0pGlj7fX-82" value="&lt;font style=&quot;font-size: 14px;&quot;&gt;update a single user event&lt;/font&gt;" style="shape=partialRectangle;html=1;whiteSpace=wrap;connectable=0;fillColor=none;top=0;left=0;bottom=0;right=0;overflow=hidden;" parent="3LBCeSW4Zflb0pGlj7fX-79" vertex="1">
                    <mxGeometry x="534" width="233" height="26" as="geometry">
                        <mxRectangle width="233" height="26" as="alternateBounds"/>
                    </mxGeometry>
                </mxCell>
                <mxCell id="3LBCeSW4Zflb0pGlj7fX-83" style="shape=tableRow;horizontal=0;startSize=0;swimlaneHead=0;swimlaneBody=0;top=0;left=0;bottom=0;right=0;collapsible=0;dropTarget=0;fillColor=none;points=[[0,0.5],[1,0.5]];portConstraint=eastwest;" parent="39" vertex="1">
                    <mxGeometry y="228" width="767" height="22" as="geometry"/>
                </mxCell>
                <mxCell id="3LBCeSW4Zflb0pGlj7fX-84" value="&lt;meta charset=&quot;utf-8&quot;&gt;&lt;span style=&quot;color: rgb(240, 240, 240); font-family: Helvetica; font-size: 16px; font-style: normal; font-variant-ligatures: normal; font-variant-caps: normal; font-weight: 400; letter-spacing: normal; orphans: 2; text-align: center; text-indent: 0px; text-transform: none; widows: 2; word-spacing: 0px; -webkit-text-stroke-width: 0px; background-color: rgb(42, 37, 47); text-decoration-thickness: initial; text-decoration-style: initial; text-decoration-color: initial; float: none; display: inline !important;&quot;&gt;/users/id/events/:id&lt;/span&gt;" style="shape=partialRectangle;html=1;whiteSpace=wrap;connectable=0;fillColor=none;top=0;left=0;bottom=0;right=0;overflow=hidden;" parent="3LBCeSW4Zflb0pGlj7fX-83" vertex="1">
                    <mxGeometry width="300" height="22" as="geometry">
                        <mxRectangle width="300" height="22" as="alternateBounds"/>
                    </mxGeometry>
                </mxCell>
                <mxCell id="3LBCeSW4Zflb0pGlj7fX-85" value="&lt;font style=&quot;font-size: 14px;&quot;&gt;DELETE&lt;/font&gt;" style="shape=partialRectangle;html=1;whiteSpace=wrap;connectable=0;fillColor=none;top=0;left=0;bottom=0;right=0;overflow=hidden;" parent="3LBCeSW4Zflb0pGlj7fX-83" vertex="1">
                    <mxGeometry x="300" width="234" height="22" as="geometry">
                        <mxRectangle width="234" height="22" as="alternateBounds"/>
                    </mxGeometry>
                </mxCell>
                <mxCell id="3LBCeSW4Zflb0pGlj7fX-86" value="&lt;font style=&quot;font-size: 14px;&quot;&gt;delete a single user event&lt;/font&gt;" style="shape=partialRectangle;html=1;whiteSpace=wrap;connectable=0;fillColor=none;top=0;left=0;bottom=0;right=0;overflow=hidden;" parent="3LBCeSW4Zflb0pGlj7fX-83" vertex="1">
                    <mxGeometry x="534" width="233" height="22" as="geometry">
                        <mxRectangle width="233" height="22" as="alternateBounds"/>
                    </mxGeometry>
                </mxCell>
                <mxCell id="3LBCeSW4Zflb0pGlj7fX-87" style="shape=tableRow;horizontal=0;startSize=0;swimlaneHead=0;swimlaneBody=0;top=0;left=0;bottom=0;right=0;collapsible=0;dropTarget=0;fillColor=none;points=[[0,0.5],[1,0.5]];portConstraint=eastwest;" parent="39" vertex="1">
                    <mxGeometry y="250" width="767" height="26" as="geometry"/>
                </mxCell>
                <mxCell id="3LBCeSW4Zflb0pGlj7fX-88" value="" style="shape=partialRectangle;html=1;whiteSpace=wrap;connectable=0;fillColor=none;top=0;left=0;bottom=0;right=0;overflow=hidden;" parent="3LBCeSW4Zflb0pGlj7fX-87" vertex="1">
                    <mxGeometry width="300" height="26" as="geometry">
                        <mxRectangle width="300" height="26" as="alternateBounds"/>
                    </mxGeometry>
                </mxCell>
                <mxCell id="3LBCeSW4Zflb0pGlj7fX-89" value="" style="shape=partialRectangle;html=1;whiteSpace=wrap;connectable=0;fillColor=none;top=0;left=0;bottom=0;right=0;overflow=hidden;" parent="3LBCeSW4Zflb0pGlj7fX-87" vertex="1">
                    <mxGeometry x="300" width="234" height="26" as="geometry">
                        <mxRectangle width="234" height="26" as="alternateBounds"/>
                    </mxGeometry>
                </mxCell>
                <mxCell id="3LBCeSW4Zflb0pGlj7fX-90" value="" style="shape=partialRectangle;html=1;whiteSpace=wrap;connectable=0;fillColor=none;top=0;left=0;bottom=0;right=0;overflow=hidden;" parent="3LBCeSW4Zflb0pGlj7fX-87" vertex="1">
                    <mxGeometry x="534" width="233" height="26" as="geometry">
                        <mxRectangle width="233" height="26" as="alternateBounds"/>
                    </mxGeometry>
                </mxCell>
                <mxCell id="198" style="shape=tableRow;horizontal=0;startSize=0;swimlaneHead=0;swimlaneBody=0;top=0;left=0;bottom=0;right=0;collapsible=0;dropTarget=0;fillColor=none;points=[[0,0.5],[1,0.5]];portConstraint=eastwest;" parent="39" vertex="1">
                    <mxGeometry y="276" width="767" height="26" as="geometry"/>
                </mxCell>
                <mxCell id="199" value="&lt;span style=&quot;font-size: 16px;&quot;&gt;/user_clients/:id/events&lt;/span&gt;" style="shape=partialRectangle;html=1;whiteSpace=wrap;connectable=0;fillColor=none;top=0;left=0;bottom=0;right=0;overflow=hidden;" parent="198" vertex="1">
                    <mxGeometry width="300" height="26" as="geometry">
                        <mxRectangle width="300" height="26" as="alternateBounds"/>
                    </mxGeometry>
                </mxCell>
                <mxCell id="200" value="&lt;meta charset=&quot;utf-8&quot;&gt;&lt;span style=&quot;color: rgb(240, 240, 240); font-family: Helvetica; font-size: 14px; font-style: normal; font-variant-ligatures: normal; font-variant-caps: normal; font-weight: 400; letter-spacing: normal; orphans: 2; text-align: center; text-indent: 0px; text-transform: none; widows: 2; word-spacing: 0px; -webkit-text-stroke-width: 0px; background-color: rgb(42, 37, 47); text-decoration-thickness: initial; text-decoration-style: initial; text-decoration-color: initial; float: none; display: inline !important;&quot;&gt;GET&lt;/span&gt;" style="shape=partialRectangle;html=1;whiteSpace=wrap;connectable=0;fillColor=none;top=0;left=0;bottom=0;right=0;overflow=hidden;" parent="198" vertex="1">
                    <mxGeometry x="300" width="234" height="26" as="geometry">
                        <mxRectangle width="234" height="26" as="alternateBounds"/>
                    </mxGeometry>
                </mxCell>
                <mxCell id="201" value="show all client events" style="shape=partialRectangle;html=1;whiteSpace=wrap;connectable=0;fillColor=none;top=0;left=0;bottom=0;right=0;overflow=hidden;" parent="198" vertex="1">
                    <mxGeometry x="534" width="233" height="26" as="geometry">
                        <mxRectangle width="233" height="26" as="alternateBounds"/>
                    </mxGeometry>
                </mxCell>
                <mxCell id="194" style="shape=tableRow;horizontal=0;startSize=0;swimlaneHead=0;swimlaneBody=0;top=0;left=0;bottom=0;right=0;collapsible=0;dropTarget=0;fillColor=none;points=[[0,0.5],[1,0.5]];portConstraint=eastwest;" parent="39" vertex="1">
                    <mxGeometry y="302" width="767" height="26" as="geometry"/>
                </mxCell>
                <mxCell id="195" value="&lt;span style=&quot;font-size: 16px;&quot;&gt;/user_clients/:id/events&lt;/span&gt;" style="shape=partialRectangle;html=1;whiteSpace=wrap;connectable=0;fillColor=none;top=0;left=0;bottom=0;right=0;overflow=hidden;" parent="194" vertex="1">
                    <mxGeometry width="300" height="26" as="geometry">
                        <mxRectangle width="300" height="26" as="alternateBounds"/>
                    </mxGeometry>
                </mxCell>
                <mxCell id="196" value="&lt;meta charset=&quot;utf-8&quot;&gt;&lt;span style=&quot;color: rgb(240, 240, 240); font-family: Helvetica; font-size: 14px; font-style: normal; font-variant-ligatures: normal; font-variant-caps: normal; font-weight: 400; letter-spacing: normal; orphans: 2; text-align: center; text-indent: 0px; text-transform: none; widows: 2; word-spacing: 0px; -webkit-text-stroke-width: 0px; background-color: rgb(42, 37, 47); text-decoration-thickness: initial; text-decoration-style: initial; text-decoration-color: initial; float: none; display: inline !important;&quot;&gt;POST&lt;/span&gt;" style="shape=partialRectangle;html=1;whiteSpace=wrap;connectable=0;fillColor=none;top=0;left=0;bottom=0;right=0;overflow=hidden;" parent="194" vertex="1">
                    <mxGeometry x="300" width="234" height="26" as="geometry">
                        <mxRectangle width="234" height="26" as="alternateBounds"/>
                    </mxGeometry>
                </mxCell>
                <mxCell id="197" value="post a client event" style="shape=partialRectangle;html=1;whiteSpace=wrap;connectable=0;fillColor=none;top=0;left=0;bottom=0;right=0;overflow=hidden;" parent="194" vertex="1">
                    <mxGeometry x="534" width="233" height="26" as="geometry">
                        <mxRectangle width="233" height="26" as="alternateBounds"/>
                    </mxGeometry>
                </mxCell>
                <mxCell id="190" style="shape=tableRow;horizontal=0;startSize=0;swimlaneHead=0;swimlaneBody=0;top=0;left=0;bottom=0;right=0;collapsible=0;dropTarget=0;fillColor=none;points=[[0,0.5],[1,0.5]];portConstraint=eastwest;" parent="39" vertex="1">
                    <mxGeometry y="328" width="767" height="26" as="geometry"/>
                </mxCell>
                <mxCell id="191" style="shape=partialRectangle;html=1;whiteSpace=wrap;connectable=0;fillColor=none;top=0;left=0;bottom=0;right=0;overflow=hidden;" parent="190" vertex="1">
                    <mxGeometry width="300" height="26" as="geometry">
                        <mxRectangle width="300" height="26" as="alternateBounds"/>
                    </mxGeometry>
                </mxCell>
                <mxCell id="192" style="shape=partialRectangle;html=1;whiteSpace=wrap;connectable=0;fillColor=none;top=0;left=0;bottom=0;right=0;overflow=hidden;" parent="190" vertex="1">
                    <mxGeometry x="300" width="234" height="26" as="geometry">
                        <mxRectangle width="234" height="26" as="alternateBounds"/>
                    </mxGeometry>
                </mxCell>
                <mxCell id="193" style="shape=partialRectangle;html=1;whiteSpace=wrap;connectable=0;fillColor=none;top=0;left=0;bottom=0;right=0;overflow=hidden;" parent="190" vertex="1">
                    <mxGeometry x="534" width="233" height="26" as="geometry">
                        <mxRectangle width="233" height="26" as="alternateBounds"/>
                    </mxGeometry>
                </mxCell>
                <mxCell id="186" style="shape=tableRow;horizontal=0;startSize=0;swimlaneHead=0;swimlaneBody=0;top=0;left=0;bottom=0;right=0;collapsible=0;dropTarget=0;fillColor=none;points=[[0,0.5],[1,0.5]];portConstraint=eastwest;" parent="39" vertex="1">
                    <mxGeometry y="354" width="767" height="26" as="geometry"/>
                </mxCell>
                <mxCell id="187" value="&lt;span style=&quot;color: rgb(240, 240, 240); font-family: Helvetica; font-size: 16px; font-style: normal; font-variant-ligatures: normal; font-variant-caps: normal; font-weight: 400; letter-spacing: normal; orphans: 2; text-align: center; text-indent: 0px; text-transform: none; widows: 2; word-spacing: 0px; -webkit-text-stroke-width: 0px; background-color: rgb(42, 37, 47); text-decoration-thickness: initial; text-decoration-style: initial; text-decoration-color: initial; float: none; display: inline !important;&quot;&gt;/user_clients/id/events/:id&lt;/span&gt;" style="shape=partialRectangle;html=1;whiteSpace=wrap;connectable=0;fillColor=none;top=0;left=0;bottom=0;right=0;overflow=hidden;" parent="186" vertex="1">
                    <mxGeometry width="300" height="26" as="geometry">
                        <mxRectangle width="300" height="26" as="alternateBounds"/>
                    </mxGeometry>
                </mxCell>
                <mxCell id="188" value="&lt;span style=&quot;font-size: 14px;&quot;&gt;GET&lt;/span&gt;" style="shape=partialRectangle;html=1;whiteSpace=wrap;connectable=0;fillColor=none;top=0;left=0;bottom=0;right=0;overflow=hidden;" parent="186" vertex="1">
                    <mxGeometry x="300" width="234" height="26" as="geometry">
                        <mxRectangle width="234" height="26" as="alternateBounds"/>
                    </mxGeometry>
                </mxCell>
                <mxCell id="189" value="show a single client event" style="shape=partialRectangle;html=1;whiteSpace=wrap;connectable=0;fillColor=none;top=0;left=0;bottom=0;right=0;overflow=hidden;" parent="186" vertex="1">
                    <mxGeometry x="534" width="233" height="26" as="geometry">
                        <mxRectangle width="233" height="26" as="alternateBounds"/>
                    </mxGeometry>
                </mxCell>
                <mxCell id="182" style="shape=tableRow;horizontal=0;startSize=0;swimlaneHead=0;swimlaneBody=0;top=0;left=0;bottom=0;right=0;collapsible=0;dropTarget=0;fillColor=none;points=[[0,0.5],[1,0.5]];portConstraint=eastwest;" parent="39" vertex="1">
                    <mxGeometry y="380" width="767" height="26" as="geometry"/>
                </mxCell>
                <mxCell id="183" value="&lt;meta charset=&quot;utf-8&quot;&gt;&lt;span style=&quot;color: rgb(240, 240, 240); font-family: Helvetica; font-size: 16px; font-style: normal; font-variant-ligatures: normal; font-variant-caps: normal; font-weight: 400; letter-spacing: normal; orphans: 2; text-align: center; text-indent: 0px; text-transform: none; widows: 2; word-spacing: 0px; -webkit-text-stroke-width: 0px; background-color: rgb(42, 37, 47); text-decoration-thickness: initial; text-decoration-style: initial; text-decoration-color: initial; float: none; display: inline !important;&quot;&gt;/user_clients/id/events/:id&lt;/span&gt;" style="shape=partialRectangle;html=1;whiteSpace=wrap;connectable=0;fillColor=none;top=0;left=0;bottom=0;right=0;overflow=hidden;" parent="182" vertex="1">
                    <mxGeometry width="300" height="26" as="geometry">
                        <mxRectangle width="300" height="26" as="alternateBounds"/>
                    </mxGeometry>
                </mxCell>
                <mxCell id="184" value="&lt;span style=&quot;font-size: 14px;&quot;&gt;PATCH&lt;/span&gt;" style="shape=partialRectangle;html=1;whiteSpace=wrap;connectable=0;fillColor=none;top=0;left=0;bottom=0;right=0;overflow=hidden;" parent="182" vertex="1">
                    <mxGeometry x="300" width="234" height="26" as="geometry">
                        <mxRectangle width="234" height="26" as="alternateBounds"/>
                    </mxGeometry>
                </mxCell>
                <mxCell id="185" value="uodate a single client event" style="shape=partialRectangle;html=1;whiteSpace=wrap;connectable=0;fillColor=none;top=0;left=0;bottom=0;right=0;overflow=hidden;" parent="182" vertex="1">
                    <mxGeometry x="534" width="233" height="26" as="geometry">
                        <mxRectangle width="233" height="26" as="alternateBounds"/>
                    </mxGeometry>
                </mxCell>
                <mxCell id="178" style="shape=tableRow;horizontal=0;startSize=0;swimlaneHead=0;swimlaneBody=0;top=0;left=0;bottom=0;right=0;collapsible=0;dropTarget=0;fillColor=none;points=[[0,0.5],[1,0.5]];portConstraint=eastwest;" parent="39" vertex="1">
                    <mxGeometry y="406" width="767" height="26" as="geometry"/>
                </mxCell>
                <mxCell id="179" value="&lt;meta charset=&quot;utf-8&quot;&gt;&lt;span style=&quot;color: rgb(240, 240, 240); font-family: Helvetica; font-size: 16px; font-style: normal; font-variant-ligatures: normal; font-variant-caps: normal; font-weight: 400; letter-spacing: normal; orphans: 2; text-align: center; text-indent: 0px; text-transform: none; widows: 2; word-spacing: 0px; -webkit-text-stroke-width: 0px; background-color: rgb(42, 37, 47); text-decoration-thickness: initial; text-decoration-style: initial; text-decoration-color: initial; float: none; display: inline !important;&quot;&gt;/user_clients/id/events/:id&lt;/span&gt;" style="shape=partialRectangle;html=1;whiteSpace=wrap;connectable=0;fillColor=none;top=0;left=0;bottom=0;right=0;overflow=hidden;" parent="178" vertex="1">
                    <mxGeometry width="300" height="26" as="geometry">
                        <mxRectangle width="300" height="26" as="alternateBounds"/>
                    </mxGeometry>
                </mxCell>
                <mxCell id="180" value="&lt;span style=&quot;font-size: 14px;&quot;&gt;DELETE&lt;/span&gt;" style="shape=partialRectangle;html=1;whiteSpace=wrap;connectable=0;fillColor=none;top=0;left=0;bottom=0;right=0;overflow=hidden;" parent="178" vertex="1">
                    <mxGeometry x="300" width="234" height="26" as="geometry">
                        <mxRectangle width="234" height="26" as="alternateBounds"/>
                    </mxGeometry>
                </mxCell>
                <mxCell id="181" value="delete a single client event" style="shape=partialRectangle;html=1;whiteSpace=wrap;connectable=0;fillColor=none;top=0;left=0;bottom=0;right=0;overflow=hidden;" parent="178" vertex="1">
                    <mxGeometry x="534" width="233" height="26" as="geometry">
                        <mxRectangle width="233" height="26" as="alternateBounds"/>
                    </mxGeometry>
                </mxCell>
                <mxCell id="222" style="shape=tableRow;horizontal=0;startSize=0;swimlaneHead=0;swimlaneBody=0;top=0;left=0;bottom=0;right=0;collapsible=0;dropTarget=0;fillColor=none;points=[[0,0.5],[1,0.5]];portConstraint=eastwest;" vertex="1" parent="39">
                    <mxGeometry y="432" width="767" height="28" as="geometry"/>
                </mxCell>
                <mxCell id="223" style="shape=partialRectangle;html=1;whiteSpace=wrap;connectable=0;fillColor=none;top=0;left=0;bottom=0;right=0;overflow=hidden;" vertex="1" parent="222">
                    <mxGeometry width="300" height="28" as="geometry">
                        <mxRectangle width="300" height="28" as="alternateBounds"/>
                    </mxGeometry>
                </mxCell>
                <mxCell id="224" style="shape=partialRectangle;html=1;whiteSpace=wrap;connectable=0;fillColor=none;top=0;left=0;bottom=0;right=0;overflow=hidden;" vertex="1" parent="222">
                    <mxGeometry x="300" width="234" height="28" as="geometry">
                        <mxRectangle width="234" height="28" as="alternateBounds"/>
                    </mxGeometry>
                </mxCell>
                <mxCell id="225" style="shape=partialRectangle;html=1;whiteSpace=wrap;connectable=0;fillColor=none;top=0;left=0;bottom=0;right=0;overflow=hidden;" vertex="1" parent="222">
                    <mxGeometry x="534" width="233" height="28" as="geometry">
                        <mxRectangle width="233" height="28" as="alternateBounds"/>
                    </mxGeometry>
                </mxCell>
                <mxCell id="226" style="shape=tableRow;horizontal=0;startSize=0;swimlaneHead=0;swimlaneBody=0;top=0;left=0;bottom=0;right=0;collapsible=0;dropTarget=0;fillColor=none;points=[[0,0.5],[1,0.5]];portConstraint=eastwest;" vertex="1" parent="39">
                    <mxGeometry y="460" width="767" height="26" as="geometry"/>
                </mxCell>
                <mxCell id="227" value="/events/:id/instances" style="shape=partialRectangle;html=1;whiteSpace=wrap;connectable=0;fillColor=none;top=0;left=0;bottom=0;right=0;overflow=hidden;fontSize=16;" vertex="1" parent="226">
                    <mxGeometry width="300" height="26" as="geometry">
                        <mxRectangle width="300" height="26" as="alternateBounds"/>
                    </mxGeometry>
                </mxCell>
                <mxCell id="228" value="&lt;meta charset=&quot;utf-8&quot;&gt;&lt;span style=&quot;color: rgb(240, 240, 240); font-family: Helvetica; font-size: 14px; font-style: normal; font-variant-ligatures: normal; font-variant-caps: normal; font-weight: 400; letter-spacing: normal; orphans: 2; text-align: center; text-indent: 0px; text-transform: none; widows: 2; word-spacing: 0px; -webkit-text-stroke-width: 0px; background-color: rgb(42, 37, 47); text-decoration-thickness: initial; text-decoration-style: initial; text-decoration-color: initial; float: none; display: inline !important;&quot;&gt;GET&lt;/span&gt;" style="shape=partialRectangle;html=1;whiteSpace=wrap;connectable=0;fillColor=none;top=0;left=0;bottom=0;right=0;overflow=hidden;" vertex="1" parent="226">
                    <mxGeometry x="300" width="234" height="26" as="geometry">
                        <mxRectangle width="234" height="26" as="alternateBounds"/>
                    </mxGeometry>
                </mxCell>
                <mxCell id="229" value="get all instances of event" style="shape=partialRectangle;html=1;whiteSpace=wrap;connectable=0;fillColor=none;top=0;left=0;bottom=0;right=0;overflow=hidden;" vertex="1" parent="226">
                    <mxGeometry x="534" width="233" height="26" as="geometry">
                        <mxRectangle width="233" height="26" as="alternateBounds"/>
                    </mxGeometry>
                </mxCell>
                <mxCell id="230" style="shape=tableRow;horizontal=0;startSize=0;swimlaneHead=0;swimlaneBody=0;top=0;left=0;bottom=0;right=0;collapsible=0;dropTarget=0;fillColor=none;points=[[0,0.5],[1,0.5]];portConstraint=eastwest;" vertex="1" parent="39">
                    <mxGeometry y="486" width="767" height="26" as="geometry"/>
                </mxCell>
                <mxCell id="231" value="&lt;span style=&quot;font-size: 16px;&quot;&gt;/events/:id/instances&lt;/span&gt;" style="shape=partialRectangle;html=1;whiteSpace=wrap;connectable=0;fillColor=none;top=0;left=0;bottom=0;right=0;overflow=hidden;" vertex="1" parent="230">
                    <mxGeometry width="300" height="26" as="geometry">
                        <mxRectangle width="300" height="26" as="alternateBounds"/>
                    </mxGeometry>
                </mxCell>
                <mxCell id="232" value="&lt;meta charset=&quot;utf-8&quot;&gt;&lt;span style=&quot;color: rgb(240, 240, 240); font-family: Helvetica; font-size: 14px; font-style: normal; font-variant-ligatures: normal; font-variant-caps: normal; font-weight: 400; letter-spacing: normal; orphans: 2; text-align: center; text-indent: 0px; text-transform: none; widows: 2; word-spacing: 0px; -webkit-text-stroke-width: 0px; background-color: rgb(42, 37, 47); text-decoration-thickness: initial; text-decoration-style: initial; text-decoration-color: initial; float: none; display: inline !important;&quot;&gt;POST&lt;/span&gt;" style="shape=partialRectangle;html=1;whiteSpace=wrap;connectable=0;fillColor=none;top=0;left=0;bottom=0;right=0;overflow=hidden;" vertex="1" parent="230">
                    <mxGeometry x="300" width="234" height="26" as="geometry">
                        <mxRectangle width="234" height="26" as="alternateBounds"/>
                    </mxGeometry>
                </mxCell>
                <mxCell id="233" value="add instance to an event" style="shape=partialRectangle;html=1;whiteSpace=wrap;connectable=0;fillColor=none;top=0;left=0;bottom=0;right=0;overflow=hidden;" vertex="1" parent="230">
                    <mxGeometry x="534" width="233" height="26" as="geometry">
                        <mxRectangle width="233" height="26" as="alternateBounds"/>
                    </mxGeometry>
                </mxCell>
                <mxCell id="234" style="shape=tableRow;horizontal=0;startSize=0;swimlaneHead=0;swimlaneBody=0;top=0;left=0;bottom=0;right=0;collapsible=0;dropTarget=0;fillColor=none;points=[[0,0.5],[1,0.5]];portConstraint=eastwest;" vertex="1" parent="39">
                    <mxGeometry y="512" width="767" height="26" as="geometry"/>
                </mxCell>
                <mxCell id="235" style="shape=partialRectangle;html=1;whiteSpace=wrap;connectable=0;fillColor=none;top=0;left=0;bottom=0;right=0;overflow=hidden;" vertex="1" parent="234">
                    <mxGeometry width="300" height="26" as="geometry">
                        <mxRectangle width="300" height="26" as="alternateBounds"/>
                    </mxGeometry>
                </mxCell>
                <mxCell id="236" style="shape=partialRectangle;html=1;whiteSpace=wrap;connectable=0;fillColor=none;top=0;left=0;bottom=0;right=0;overflow=hidden;" vertex="1" parent="234">
                    <mxGeometry x="300" width="234" height="26" as="geometry">
                        <mxRectangle width="234" height="26" as="alternateBounds"/>
                    </mxGeometry>
                </mxCell>
                <mxCell id="237" style="shape=partialRectangle;html=1;whiteSpace=wrap;connectable=0;fillColor=none;top=0;left=0;bottom=0;right=0;overflow=hidden;" vertex="1" parent="234">
                    <mxGeometry x="534" width="233" height="26" as="geometry">
                        <mxRectangle width="233" height="26" as="alternateBounds"/>
                    </mxGeometry>
                </mxCell>
                <mxCell id="238" style="shape=tableRow;horizontal=0;startSize=0;swimlaneHead=0;swimlaneBody=0;top=0;left=0;bottom=0;right=0;collapsible=0;dropTarget=0;fillColor=none;points=[[0,0.5],[1,0.5]];portConstraint=eastwest;" vertex="1" parent="39">
                    <mxGeometry y="538" width="767" height="26" as="geometry"/>
                </mxCell>
                <mxCell id="239" value="&lt;span style=&quot;font-size: 16px;&quot;&gt;/events/:id/instances/:id&lt;/span&gt;" style="shape=partialRectangle;html=1;whiteSpace=wrap;connectable=0;fillColor=none;top=0;left=0;bottom=0;right=0;overflow=hidden;" vertex="1" parent="238">
                    <mxGeometry width="300" height="26" as="geometry">
                        <mxRectangle width="300" height="26" as="alternateBounds"/>
                    </mxGeometry>
                </mxCell>
                <mxCell id="240" value="&lt;meta charset=&quot;utf-8&quot;&gt;&lt;span style=&quot;color: rgb(240, 240, 240); font-family: Helvetica; font-size: 14px; font-style: normal; font-variant-ligatures: normal; font-variant-caps: normal; font-weight: 400; letter-spacing: normal; orphans: 2; text-align: center; text-indent: 0px; text-transform: none; widows: 2; word-spacing: 0px; -webkit-text-stroke-width: 0px; background-color: rgb(42, 37, 47); text-decoration-thickness: initial; text-decoration-style: initial; text-decoration-color: initial; float: none; display: inline !important;&quot;&gt;GET&lt;/span&gt;" style="shape=partialRectangle;html=1;whiteSpace=wrap;connectable=0;fillColor=none;top=0;left=0;bottom=0;right=0;overflow=hidden;" vertex="1" parent="238">
                    <mxGeometry x="300" width="234" height="26" as="geometry">
                        <mxRectangle width="234" height="26" as="alternateBounds"/>
                    </mxGeometry>
                </mxCell>
                <mxCell id="241" value="get specific event instance" style="shape=partialRectangle;html=1;whiteSpace=wrap;connectable=0;fillColor=none;top=0;left=0;bottom=0;right=0;overflow=hidden;" vertex="1" parent="238">
                    <mxGeometry x="534" width="233" height="26" as="geometry">
                        <mxRectangle width="233" height="26" as="alternateBounds"/>
                    </mxGeometry>
                </mxCell>
                <mxCell id="242" style="shape=tableRow;horizontal=0;startSize=0;swimlaneHead=0;swimlaneBody=0;top=0;left=0;bottom=0;right=0;collapsible=0;dropTarget=0;fillColor=none;points=[[0,0.5],[1,0.5]];portConstraint=eastwest;" vertex="1" parent="39">
                    <mxGeometry y="564" width="767" height="26" as="geometry"/>
                </mxCell>
                <mxCell id="243" value="&lt;span style=&quot;font-size: 16px;&quot;&gt;/events/:id/instances/:id&lt;/span&gt;" style="shape=partialRectangle;html=1;whiteSpace=wrap;connectable=0;fillColor=none;top=0;left=0;bottom=0;right=0;overflow=hidden;" vertex="1" parent="242">
                    <mxGeometry width="300" height="26" as="geometry">
                        <mxRectangle width="300" height="26" as="alternateBounds"/>
                    </mxGeometry>
                </mxCell>
                <mxCell id="244" value="&lt;meta charset=&quot;utf-8&quot;&gt;&lt;span style=&quot;color: rgb(240, 240, 240); font-family: Helvetica; font-size: 14px; font-style: normal; font-variant-ligatures: normal; font-variant-caps: normal; font-weight: 400; letter-spacing: normal; orphans: 2; text-align: center; text-indent: 0px; text-transform: none; widows: 2; word-spacing: 0px; -webkit-text-stroke-width: 0px; background-color: rgb(42, 37, 47); text-decoration-thickness: initial; text-decoration-style: initial; text-decoration-color: initial; float: none; display: inline !important;&quot;&gt;PATCH&lt;/span&gt;" style="shape=partialRectangle;html=1;whiteSpace=wrap;connectable=0;fillColor=none;top=0;left=0;bottom=0;right=0;overflow=hidden;" vertex="1" parent="242">
                    <mxGeometry x="300" width="234" height="26" as="geometry">
                        <mxRectangle width="234" height="26" as="alternateBounds"/>
                    </mxGeometry>
                </mxCell>
                <mxCell id="245" value="update event instance" style="shape=partialRectangle;html=1;whiteSpace=wrap;connectable=0;fillColor=none;top=0;left=0;bottom=0;right=0;overflow=hidden;" vertex="1" parent="242">
                    <mxGeometry x="534" width="233" height="26" as="geometry">
                        <mxRectangle width="233" height="26" as="alternateBounds"/>
                    </mxGeometry>
                </mxCell>
                <mxCell id="246" style="shape=tableRow;horizontal=0;startSize=0;swimlaneHead=0;swimlaneBody=0;top=0;left=0;bottom=0;right=0;collapsible=0;dropTarget=0;fillColor=none;points=[[0,0.5],[1,0.5]];portConstraint=eastwest;" vertex="1" parent="39">
                    <mxGeometry y="590" width="767" height="26" as="geometry"/>
                </mxCell>
                <mxCell id="247" value="&lt;span style=&quot;font-size: 16px;&quot;&gt;/events/:id/instances/:id&lt;/span&gt;" style="shape=partialRectangle;html=1;whiteSpace=wrap;connectable=0;fillColor=none;top=0;left=0;bottom=0;right=0;overflow=hidden;" vertex="1" parent="246">
                    <mxGeometry width="300" height="26" as="geometry">
                        <mxRectangle width="300" height="26" as="alternateBounds"/>
                    </mxGeometry>
                </mxCell>
                <mxCell id="248" value="&lt;meta charset=&quot;utf-8&quot;&gt;&lt;span style=&quot;color: rgb(240, 240, 240); font-family: Helvetica; font-size: 14px; font-style: normal; font-variant-ligatures: normal; font-variant-caps: normal; font-weight: 400; letter-spacing: normal; orphans: 2; text-align: center; text-indent: 0px; text-transform: none; widows: 2; word-spacing: 0px; -webkit-text-stroke-width: 0px; background-color: rgb(42, 37, 47); text-decoration-thickness: initial; text-decoration-style: initial; text-decoration-color: initial; float: none; display: inline !important;&quot;&gt;DELETE&lt;/span&gt;" style="shape=partialRectangle;html=1;whiteSpace=wrap;connectable=0;fillColor=none;top=0;left=0;bottom=0;right=0;overflow=hidden;" vertex="1" parent="246">
                    <mxGeometry x="300" width="234" height="26" as="geometry">
                        <mxRectangle width="234" height="26" as="alternateBounds"/>
                    </mxGeometry>
                </mxCell>
                <mxCell id="249" value="delete event instance" style="shape=partialRectangle;html=1;whiteSpace=wrap;connectable=0;fillColor=none;top=0;left=0;bottom=0;right=0;overflow=hidden;" vertex="1" parent="246">
                    <mxGeometry x="534" width="233" height="26" as="geometry">
                        <mxRectangle width="233" height="26" as="alternateBounds"/>
                    </mxGeometry>
                </mxCell>
                <mxCell id="250" style="shape=tableRow;horizontal=0;startSize=0;swimlaneHead=0;swimlaneBody=0;top=0;left=0;bottom=0;right=0;collapsible=0;dropTarget=0;fillColor=none;points=[[0,0.5],[1,0.5]];portConstraint=eastwest;" vertex="1" parent="39">
                    <mxGeometry y="616" width="767" height="26" as="geometry"/>
                </mxCell>
                <mxCell id="251" style="shape=partialRectangle;html=1;whiteSpace=wrap;connectable=0;fillColor=none;top=0;left=0;bottom=0;right=0;overflow=hidden;" vertex="1" parent="250">
                    <mxGeometry width="300" height="26" as="geometry">
                        <mxRectangle width="300" height="26" as="alternateBounds"/>
                    </mxGeometry>
                </mxCell>
                <mxCell id="252" style="shape=partialRectangle;html=1;whiteSpace=wrap;connectable=0;fillColor=none;top=0;left=0;bottom=0;right=0;overflow=hidden;" vertex="1" parent="250">
                    <mxGeometry x="300" width="234" height="26" as="geometry">
                        <mxRectangle width="234" height="26" as="alternateBounds"/>
                    </mxGeometry>
                </mxCell>
                <mxCell id="253" style="shape=partialRectangle;html=1;whiteSpace=wrap;connectable=0;fillColor=none;top=0;left=0;bottom=0;right=0;overflow=hidden;" vertex="1" parent="250">
                    <mxGeometry x="534" width="233" height="26" as="geometry">
                        <mxRectangle width="233" height="26" as="alternateBounds"/>
                    </mxGeometry>
                </mxCell>
                <mxCell id="254" style="shape=tableRow;horizontal=0;startSize=0;swimlaneHead=0;swimlaneBody=0;top=0;left=0;bottom=0;right=0;collapsible=0;dropTarget=0;fillColor=none;points=[[0,0.5],[1,0.5]];portConstraint=eastwest;" vertex="1" parent="39">
                    <mxGeometry y="642" width="767" height="26" as="geometry"/>
                </mxCell>
                <mxCell id="255" value="&lt;span style=&quot;font-size: 16px;&quot;&gt;/events/:id/instances/:id/exceptions&lt;/span&gt;" style="shape=partialRectangle;html=1;whiteSpace=wrap;connectable=0;fillColor=none;top=0;left=0;bottom=0;right=0;overflow=hidden;" vertex="1" parent="254">
                    <mxGeometry width="300" height="26" as="geometry">
                        <mxRectangle width="300" height="26" as="alternateBounds"/>
                    </mxGeometry>
                </mxCell>
                <mxCell id="256" value="&lt;meta charset=&quot;utf-8&quot;&gt;&lt;span style=&quot;color: rgb(240, 240, 240); font-family: Helvetica; font-size: 14px; font-style: normal; font-variant-ligatures: normal; font-variant-caps: normal; font-weight: 400; letter-spacing: normal; orphans: 2; text-align: center; text-indent: 0px; text-transform: none; widows: 2; word-spacing: 0px; -webkit-text-stroke-width: 0px; background-color: rgb(42, 37, 47); text-decoration-thickness: initial; text-decoration-style: initial; text-decoration-color: initial; float: none; display: inline !important;&quot;&gt;GET&lt;/span&gt;" style="shape=partialRectangle;html=1;whiteSpace=wrap;connectable=0;fillColor=none;top=0;left=0;bottom=0;right=0;overflow=hidden;" vertex="1" parent="254">
                    <mxGeometry x="300" width="234" height="26" as="geometry">
                        <mxRectangle width="234" height="26" as="alternateBounds"/>
                    </mxGeometry>
                </mxCell>
                <mxCell id="257" value="get all instance exceptions" style="shape=partialRectangle;html=1;whiteSpace=wrap;connectable=0;fillColor=none;top=0;left=0;bottom=0;right=0;overflow=hidden;" vertex="1" parent="254">
                    <mxGeometry x="534" width="233" height="26" as="geometry">
                        <mxRectangle width="233" height="26" as="alternateBounds"/>
                    </mxGeometry>
                </mxCell>
                <mxCell id="258" style="shape=tableRow;horizontal=0;startSize=0;swimlaneHead=0;swimlaneBody=0;top=0;left=0;bottom=0;right=0;collapsible=0;dropTarget=0;fillColor=none;points=[[0,0.5],[1,0.5]];portConstraint=eastwest;" vertex="1" parent="39">
                    <mxGeometry y="668" width="767" height="26" as="geometry"/>
                </mxCell>
                <mxCell id="259" value="&lt;meta charset=&quot;utf-8&quot;&gt;&lt;span style=&quot;color: rgb(240, 240, 240); font-family: Helvetica; font-size: 16px; font-style: normal; font-variant-ligatures: normal; font-variant-caps: normal; font-weight: 400; letter-spacing: normal; orphans: 2; text-align: center; text-indent: 0px; text-transform: none; widows: 2; word-spacing: 0px; -webkit-text-stroke-width: 0px; background-color: rgb(42, 37, 47); text-decoration-thickness: initial; text-decoration-style: initial; text-decoration-color: initial; float: none; display: inline !important;&quot;&gt;/events/:id/instances/:id/exceptions&lt;/span&gt;" style="shape=partialRectangle;html=1;whiteSpace=wrap;connectable=0;fillColor=none;top=0;left=0;bottom=0;right=0;overflow=hidden;" vertex="1" parent="258">
                    <mxGeometry width="300" height="26" as="geometry">
                        <mxRectangle width="300" height="26" as="alternateBounds"/>
                    </mxGeometry>
                </mxCell>
                <mxCell id="260" value="&lt;span style=&quot;font-size: 14px;&quot;&gt;POST&lt;/span&gt;" style="shape=partialRectangle;html=1;whiteSpace=wrap;connectable=0;fillColor=none;top=0;left=0;bottom=0;right=0;overflow=hidden;" vertex="1" parent="258">
                    <mxGeometry x="300" width="234" height="26" as="geometry">
                        <mxRectangle width="234" height="26" as="alternateBounds"/>
                    </mxGeometry>
                </mxCell>
                <mxCell id="261" value="add an instance exception" style="shape=partialRectangle;html=1;whiteSpace=wrap;connectable=0;fillColor=none;top=0;left=0;bottom=0;right=0;overflow=hidden;" vertex="1" parent="258">
                    <mxGeometry x="534" width="233" height="26" as="geometry">
                        <mxRectangle width="233" height="26" as="alternateBounds"/>
                    </mxGeometry>
                </mxCell>
                <mxCell id="262" style="shape=tableRow;horizontal=0;startSize=0;swimlaneHead=0;swimlaneBody=0;top=0;left=0;bottom=0;right=0;collapsible=0;dropTarget=0;fillColor=none;points=[[0,0.5],[1,0.5]];portConstraint=eastwest;" vertex="1" parent="39">
                    <mxGeometry y="694" width="767" height="26" as="geometry"/>
                </mxCell>
                <mxCell id="263" style="shape=partialRectangle;html=1;whiteSpace=wrap;connectable=0;fillColor=none;top=0;left=0;bottom=0;right=0;overflow=hidden;" vertex="1" parent="262">
                    <mxGeometry width="300" height="26" as="geometry">
                        <mxRectangle width="300" height="26" as="alternateBounds"/>
                    </mxGeometry>
                </mxCell>
                <mxCell id="264" style="shape=partialRectangle;html=1;whiteSpace=wrap;connectable=0;fillColor=none;top=0;left=0;bottom=0;right=0;overflow=hidden;" vertex="1" parent="262">
                    <mxGeometry x="300" width="234" height="26" as="geometry">
                        <mxRectangle width="234" height="26" as="alternateBounds"/>
                    </mxGeometry>
                </mxCell>
                <mxCell id="265" style="shape=partialRectangle;html=1;whiteSpace=wrap;connectable=0;fillColor=none;top=0;left=0;bottom=0;right=0;overflow=hidden;" vertex="1" parent="262">
                    <mxGeometry x="534" width="233" height="26" as="geometry">
                        <mxRectangle width="233" height="26" as="alternateBounds"/>
                    </mxGeometry>
                </mxCell>
                <mxCell id="266" style="shape=tableRow;horizontal=0;startSize=0;swimlaneHead=0;swimlaneBody=0;top=0;left=0;bottom=0;right=0;collapsible=0;dropTarget=0;fillColor=none;points=[[0,0.5],[1,0.5]];portConstraint=eastwest;" vertex="1" parent="39">
                    <mxGeometry y="720" width="767" height="26" as="geometry"/>
                </mxCell>
                <mxCell id="267" value="&lt;span style=&quot;font-size: 16px;&quot;&gt;/events/:id/instances/:id/exceptions/:id&lt;/span&gt;" style="shape=partialRectangle;html=1;whiteSpace=wrap;connectable=0;fillColor=none;top=0;left=0;bottom=0;right=0;overflow=hidden;" vertex="1" parent="266">
                    <mxGeometry width="300" height="26" as="geometry">
                        <mxRectangle width="300" height="26" as="alternateBounds"/>
                    </mxGeometry>
                </mxCell>
                <mxCell id="268" value="&lt;meta charset=&quot;utf-8&quot;&gt;&lt;span style=&quot;color: rgb(240, 240, 240); font-family: Helvetica; font-size: 14px; font-style: normal; font-variant-ligatures: normal; font-variant-caps: normal; font-weight: 400; letter-spacing: normal; orphans: 2; text-align: center; text-indent: 0px; text-transform: none; widows: 2; word-spacing: 0px; -webkit-text-stroke-width: 0px; background-color: rgb(42, 37, 47); text-decoration-thickness: initial; text-decoration-style: initial; text-decoration-color: initial; float: none; display: inline !important;&quot;&gt;GET&lt;/span&gt;" style="shape=partialRectangle;html=1;whiteSpace=wrap;connectable=0;fillColor=none;top=0;left=0;bottom=0;right=0;overflow=hidden;" vertex="1" parent="266">
                    <mxGeometry x="300" width="234" height="26" as="geometry">
                        <mxRectangle width="234" height="26" as="alternateBounds"/>
                    </mxGeometry>
                </mxCell>
                <mxCell id="269" value="get specific instance exception" style="shape=partialRectangle;html=1;whiteSpace=wrap;connectable=0;fillColor=none;top=0;left=0;bottom=0;right=0;overflow=hidden;" vertex="1" parent="266">
                    <mxGeometry x="534" width="233" height="26" as="geometry">
                        <mxRectangle width="233" height="26" as="alternateBounds"/>
                    </mxGeometry>
                </mxCell>
                <mxCell id="270" style="shape=tableRow;horizontal=0;startSize=0;swimlaneHead=0;swimlaneBody=0;top=0;left=0;bottom=0;right=0;collapsible=0;dropTarget=0;fillColor=none;points=[[0,0.5],[1,0.5]];portConstraint=eastwest;" vertex="1" parent="39">
                    <mxGeometry y="746" width="767" height="24" as="geometry"/>
                </mxCell>
                <mxCell id="271" value="&lt;meta charset=&quot;utf-8&quot;&gt;&lt;span style=&quot;color: rgb(240, 240, 240); font-family: Helvetica; font-size: 16px; font-style: normal; font-variant-ligatures: normal; font-variant-caps: normal; font-weight: 400; letter-spacing: normal; orphans: 2; text-align: center; text-indent: 0px; text-transform: none; widows: 2; word-spacing: 0px; -webkit-text-stroke-width: 0px; background-color: rgb(42, 37, 47); text-decoration-thickness: initial; text-decoration-style: initial; text-decoration-color: initial; float: none; display: inline !important;&quot;&gt;/events/:id/instances/:id/exceptions/:id&lt;/span&gt;" style="shape=partialRectangle;html=1;whiteSpace=wrap;connectable=0;fillColor=none;top=0;left=0;bottom=0;right=0;overflow=hidden;" vertex="1" parent="270">
                    <mxGeometry width="300" height="24" as="geometry">
                        <mxRectangle width="300" height="24" as="alternateBounds"/>
                    </mxGeometry>
                </mxCell>
                <mxCell id="272" value="&lt;meta charset=&quot;utf-8&quot;&gt;&lt;span style=&quot;color: rgb(240, 240, 240); font-family: Helvetica; font-size: 14px; font-style: normal; font-variant-ligatures: normal; font-variant-caps: normal; font-weight: 400; letter-spacing: normal; orphans: 2; text-align: center; text-indent: 0px; text-transform: none; widows: 2; word-spacing: 0px; -webkit-text-stroke-width: 0px; background-color: rgb(42, 37, 47); text-decoration-thickness: initial; text-decoration-style: initial; text-decoration-color: initial; float: none; display: inline !important;&quot;&gt;PATCH&lt;/span&gt;" style="shape=partialRectangle;html=1;whiteSpace=wrap;connectable=0;fillColor=none;top=0;left=0;bottom=0;right=0;overflow=hidden;" vertex="1" parent="270">
                    <mxGeometry x="300" width="234" height="24" as="geometry">
                        <mxRectangle width="234" height="24" as="alternateBounds"/>
                    </mxGeometry>
                </mxCell>
                <mxCell id="273" value="update instance exception" style="shape=partialRectangle;html=1;whiteSpace=wrap;connectable=0;fillColor=none;top=0;left=0;bottom=0;right=0;overflow=hidden;" vertex="1" parent="270">
                    <mxGeometry x="534" width="233" height="24" as="geometry">
                        <mxRectangle width="233" height="24" as="alternateBounds"/>
                    </mxGeometry>
                </mxCell>
                <mxCell id="274" style="shape=tableRow;horizontal=0;startSize=0;swimlaneHead=0;swimlaneBody=0;top=0;left=0;bottom=0;right=0;collapsible=0;dropTarget=0;fillColor=none;points=[[0,0.5],[1,0.5]];portConstraint=eastwest;" vertex="1" parent="39">
                    <mxGeometry y="770" width="767" height="26" as="geometry"/>
                </mxCell>
                <mxCell id="275" value="&lt;meta charset=&quot;utf-8&quot;&gt;&lt;span style=&quot;color: rgb(240, 240, 240); font-family: Helvetica; font-size: 16px; font-style: normal; font-variant-ligatures: normal; font-variant-caps: normal; font-weight: 400; letter-spacing: normal; orphans: 2; text-align: center; text-indent: 0px; text-transform: none; widows: 2; word-spacing: 0px; -webkit-text-stroke-width: 0px; background-color: rgb(42, 37, 47); text-decoration-thickness: initial; text-decoration-style: initial; text-decoration-color: initial; float: none; display: inline !important;&quot;&gt;/events/:id/instances/:id/exceptions/:id&lt;/span&gt;" style="shape=partialRectangle;html=1;whiteSpace=wrap;connectable=0;fillColor=none;top=0;left=0;bottom=0;right=0;overflow=hidden;" vertex="1" parent="274">
                    <mxGeometry width="300" height="26" as="geometry">
                        <mxRectangle width="300" height="26" as="alternateBounds"/>
                    </mxGeometry>
                </mxCell>
                <mxCell id="276" value="&lt;meta charset=&quot;utf-8&quot;&gt;&lt;span style=&quot;color: rgb(240, 240, 240); font-family: Helvetica; font-size: 14px; font-style: normal; font-variant-ligatures: normal; font-variant-caps: normal; font-weight: 400; letter-spacing: normal; orphans: 2; text-align: center; text-indent: 0px; text-transform: none; widows: 2; word-spacing: 0px; -webkit-text-stroke-width: 0px; background-color: rgb(42, 37, 47); text-decoration-thickness: initial; text-decoration-style: initial; text-decoration-color: initial; float: none; display: inline !important;&quot;&gt;DELETE&lt;/span&gt;" style="shape=partialRectangle;html=1;whiteSpace=wrap;connectable=0;fillColor=none;top=0;left=0;bottom=0;right=0;overflow=hidden;" vertex="1" parent="274">
                    <mxGeometry x="300" width="234" height="26" as="geometry">
                        <mxRectangle width="234" height="26" as="alternateBounds"/>
                    </mxGeometry>
                </mxCell>
                <mxCell id="277" style="shape=partialRectangle;html=1;whiteSpace=wrap;connectable=0;fillColor=none;top=0;left=0;bottom=0;right=0;overflow=hidden;" vertex="1" parent="274">
                    <mxGeometry x="534" width="233" height="26" as="geometry">
                        <mxRectangle width="233" height="26" as="alternateBounds"/>
                    </mxGeometry>
                </mxCell>
                <mxCell id="174" style="shape=tableRow;horizontal=0;startSize=0;swimlaneHead=0;swimlaneBody=0;top=0;left=0;bottom=0;right=0;collapsible=0;dropTarget=0;fillColor=none;points=[[0,0.5],[1,0.5]];portConstraint=eastwest;" parent="39" vertex="1">
                    <mxGeometry y="796" width="767" height="26" as="geometry"/>
                </mxCell>
                <mxCell id="175" style="shape=partialRectangle;html=1;whiteSpace=wrap;connectable=0;fillColor=none;top=0;left=0;bottom=0;right=0;overflow=hidden;" parent="174" vertex="1">
                    <mxGeometry width="300" height="26" as="geometry">
                        <mxRectangle width="300" height="26" as="alternateBounds"/>
                    </mxGeometry>
                </mxCell>
                <mxCell id="176" style="shape=partialRectangle;html=1;whiteSpace=wrap;connectable=0;fillColor=none;top=0;left=0;bottom=0;right=0;overflow=hidden;" parent="174" vertex="1">
                    <mxGeometry x="300" width="234" height="26" as="geometry">
                        <mxRectangle width="234" height="26" as="alternateBounds"/>
                    </mxGeometry>
                </mxCell>
                <mxCell id="177" style="shape=partialRectangle;html=1;whiteSpace=wrap;connectable=0;fillColor=none;top=0;left=0;bottom=0;right=0;overflow=hidden;" parent="174" vertex="1">
                    <mxGeometry x="534" width="233" height="26" as="geometry">
                        <mxRectangle width="233" height="26" as="alternateBounds"/>
                    </mxGeometry>
                </mxCell>
                <mxCell id="3LBCeSW4Zflb0pGlj7fX-95" style="shape=tableRow;horizontal=0;startSize=0;swimlaneHead=0;swimlaneBody=0;top=0;left=0;bottom=0;right=0;collapsible=0;dropTarget=0;fillColor=none;points=[[0,0.5],[1,0.5]];portConstraint=eastwest;" parent="39" vertex="1">
                    <mxGeometry y="822" width="767" height="26" as="geometry"/>
                </mxCell>
                <mxCell id="3LBCeSW4Zflb0pGlj7fX-96" value="&lt;font style=&quot;font-size: 16px;&quot;&gt;/users&lt;/font&gt;" style="shape=partialRectangle;html=1;whiteSpace=wrap;connectable=0;fillColor=none;top=0;left=0;bottom=0;right=0;overflow=hidden;" parent="3LBCeSW4Zflb0pGlj7fX-95" vertex="1">
                    <mxGeometry width="300" height="26" as="geometry">
                        <mxRectangle width="300" height="26" as="alternateBounds"/>
                    </mxGeometry>
                </mxCell>
                <mxCell id="3LBCeSW4Zflb0pGlj7fX-97" value="&lt;font style=&quot;font-size: 14px;&quot;&gt;GET&lt;/font&gt;" style="shape=partialRectangle;html=1;whiteSpace=wrap;connectable=0;fillColor=none;top=0;left=0;bottom=0;right=0;overflow=hidden;" parent="3LBCeSW4Zflb0pGlj7fX-95" vertex="1">
                    <mxGeometry x="300" width="234" height="26" as="geometry">
                        <mxRectangle width="234" height="26" as="alternateBounds"/>
                    </mxGeometry>
                </mxCell>
                <mxCell id="3LBCeSW4Zflb0pGlj7fX-98" value="&lt;font style=&quot;font-size: 14px;&quot;&gt;Return all users (Admin-not working)&lt;/font&gt;" style="shape=partialRectangle;html=1;whiteSpace=wrap;connectable=0;fillColor=none;top=0;left=0;bottom=0;right=0;overflow=hidden;" parent="3LBCeSW4Zflb0pGlj7fX-95" vertex="1">
                    <mxGeometry x="534" width="233" height="26" as="geometry">
                        <mxRectangle width="233" height="26" as="alternateBounds"/>
                    </mxGeometry>
                </mxCell>
                <mxCell id="3LBCeSW4Zflb0pGlj7fX-99" style="shape=tableRow;horizontal=0;startSize=0;swimlaneHead=0;swimlaneBody=0;top=0;left=0;bottom=0;right=0;collapsible=0;dropTarget=0;fillColor=none;points=[[0,0.5],[1,0.5]];portConstraint=eastwest;" parent="39" vertex="1">
                    <mxGeometry y="848" width="767" height="26" as="geometry"/>
                </mxCell>
                <mxCell id="3LBCeSW4Zflb0pGlj7fX-100" value="&lt;font style=&quot;font-size: 16px;&quot;&gt;/users&lt;/font&gt;" style="shape=partialRectangle;html=1;whiteSpace=wrap;connectable=0;fillColor=none;top=0;left=0;bottom=0;right=0;overflow=hidden;" parent="3LBCeSW4Zflb0pGlj7fX-99" vertex="1">
                    <mxGeometry width="300" height="26" as="geometry">
                        <mxRectangle width="300" height="26" as="alternateBounds"/>
                    </mxGeometry>
                </mxCell>
                <mxCell id="3LBCeSW4Zflb0pGlj7fX-101" value="&lt;font style=&quot;font-size: 14px;&quot;&gt;POST&lt;/font&gt;" style="shape=partialRectangle;html=1;whiteSpace=wrap;connectable=0;fillColor=none;top=0;left=0;bottom=0;right=0;overflow=hidden;" parent="3LBCeSW4Zflb0pGlj7fX-99" vertex="1">
                    <mxGeometry x="300" width="234" height="26" as="geometry">
                        <mxRectangle width="234" height="26" as="alternateBounds"/>
                    </mxGeometry>
                </mxCell>
                <mxCell id="3LBCeSW4Zflb0pGlj7fX-102" value="&lt;font style=&quot;font-size: 14px;&quot;&gt;Add a user at login&lt;/font&gt;" style="shape=partialRectangle;html=1;whiteSpace=wrap;connectable=0;fillColor=none;top=0;left=0;bottom=0;right=0;overflow=hidden;" parent="3LBCeSW4Zflb0pGlj7fX-99" vertex="1">
                    <mxGeometry x="534" width="233" height="26" as="geometry">
                        <mxRectangle width="233" height="26" as="alternateBounds"/>
                    </mxGeometry>
                </mxCell>
                <mxCell id="3LBCeSW4Zflb0pGlj7fX-127" style="shape=tableRow;horizontal=0;startSize=0;swimlaneHead=0;swimlaneBody=0;top=0;left=0;bottom=0;right=0;collapsible=0;dropTarget=0;fillColor=none;points=[[0,0.5],[1,0.5]];portConstraint=eastwest;" parent="39" vertex="1">
                    <mxGeometry y="874" width="767" height="25" as="geometry"/>
                </mxCell>
                <mxCell id="3LBCeSW4Zflb0pGlj7fX-128" style="shape=partialRectangle;html=1;whiteSpace=wrap;connectable=0;fillColor=none;top=0;left=0;bottom=0;right=0;overflow=hidden;" parent="3LBCeSW4Zflb0pGlj7fX-127" vertex="1">
                    <mxGeometry width="300" height="25" as="geometry">
                        <mxRectangle width="300" height="25" as="alternateBounds"/>
                    </mxGeometry>
                </mxCell>
                <mxCell id="3LBCeSW4Zflb0pGlj7fX-129" style="shape=partialRectangle;html=1;whiteSpace=wrap;connectable=0;fillColor=none;top=0;left=0;bottom=0;right=0;overflow=hidden;" parent="3LBCeSW4Zflb0pGlj7fX-127" vertex="1">
                    <mxGeometry x="300" width="234" height="25" as="geometry">
                        <mxRectangle width="234" height="25" as="alternateBounds"/>
                    </mxGeometry>
                </mxCell>
                <mxCell id="3LBCeSW4Zflb0pGlj7fX-130" style="shape=partialRectangle;html=1;whiteSpace=wrap;connectable=0;fillColor=none;top=0;left=0;bottom=0;right=0;overflow=hidden;" parent="3LBCeSW4Zflb0pGlj7fX-127" vertex="1">
                    <mxGeometry x="534" width="233" height="25" as="geometry">
                        <mxRectangle width="233" height="25" as="alternateBounds"/>
                    </mxGeometry>
                </mxCell>
                <mxCell id="52" style="shape=tableRow;horizontal=0;startSize=0;swimlaneHead=0;swimlaneBody=0;top=0;left=0;bottom=0;right=0;collapsible=0;dropTarget=0;fillColor=none;points=[[0,0.5],[1,0.5]];portConstraint=eastwest;" parent="39" vertex="1">
                    <mxGeometry y="899" width="767" height="26" as="geometry"/>
                </mxCell>
                <mxCell id="53" value="/users/id" style="shape=partialRectangle;html=1;whiteSpace=wrap;connectable=0;fillColor=none;top=0;left=0;bottom=0;right=0;overflow=hidden;fontSize=16;" parent="52" vertex="1">
                    <mxGeometry width="300" height="26" as="geometry">
                        <mxRectangle width="300" height="26" as="alternateBounds"/>
                    </mxGeometry>
                </mxCell>
                <mxCell id="54" value="&lt;span style=&quot;font-size: 14px;&quot;&gt;GET&lt;/span&gt;" style="shape=partialRectangle;html=1;whiteSpace=wrap;connectable=0;fillColor=none;top=0;left=0;bottom=0;right=0;overflow=hidden;" parent="52" vertex="1">
                    <mxGeometry x="300" width="234" height="26" as="geometry">
                        <mxRectangle width="234" height="26" as="alternateBounds"/>
                    </mxGeometry>
                </mxCell>
                <mxCell id="55" value="&lt;span style=&quot;font-size: 14px;&quot;&gt;display user profile&lt;/span&gt;" style="shape=partialRectangle;html=1;whiteSpace=wrap;connectable=0;fillColor=none;top=0;left=0;bottom=0;right=0;overflow=hidden;" parent="52" vertex="1">
                    <mxGeometry x="534" width="233" height="26" as="geometry">
                        <mxRectangle width="233" height="26" as="alternateBounds"/>
                    </mxGeometry>
                </mxCell>
                <mxCell id="3LBCeSW4Zflb0pGlj7fX-103" style="shape=tableRow;horizontal=0;startSize=0;swimlaneHead=0;swimlaneBody=0;top=0;left=0;bottom=0;right=0;collapsible=0;dropTarget=0;fillColor=none;points=[[0,0.5],[1,0.5]];portConstraint=eastwest;" parent="39" vertex="1">
                    <mxGeometry y="925" width="767" height="26" as="geometry"/>
                </mxCell>
                <mxCell id="3LBCeSW4Zflb0pGlj7fX-104" value="&lt;span style=&quot;font-size: 16px;&quot;&gt;/users/id&lt;/span&gt;" style="shape=partialRectangle;html=1;whiteSpace=wrap;connectable=0;fillColor=none;top=0;left=0;bottom=0;right=0;overflow=hidden;fontSize=16;" parent="3LBCeSW4Zflb0pGlj7fX-103" vertex="1">
                    <mxGeometry width="300" height="26" as="geometry">
                        <mxRectangle width="300" height="26" as="alternateBounds"/>
                    </mxGeometry>
                </mxCell>
                <mxCell id="3LBCeSW4Zflb0pGlj7fX-105" value="&lt;font style=&quot;font-size: 14px;&quot;&gt;PATCH&lt;/font&gt;" style="shape=partialRectangle;html=1;whiteSpace=wrap;connectable=0;fillColor=none;top=0;left=0;bottom=0;right=0;overflow=hidden;" parent="3LBCeSW4Zflb0pGlj7fX-103" vertex="1">
                    <mxGeometry x="300" width="234" height="26" as="geometry">
                        <mxRectangle width="234" height="26" as="alternateBounds"/>
                    </mxGeometry>
                </mxCell>
                <mxCell id="3LBCeSW4Zflb0pGlj7fX-106" value="&lt;font style=&quot;font-size: 14px;&quot;&gt;edit user profile&lt;/font&gt;" style="shape=partialRectangle;html=1;whiteSpace=wrap;connectable=0;fillColor=none;top=0;left=0;bottom=0;right=0;overflow=hidden;" parent="3LBCeSW4Zflb0pGlj7fX-103" vertex="1">
                    <mxGeometry x="534" width="233" height="26" as="geometry">
                        <mxRectangle width="233" height="26" as="alternateBounds"/>
                    </mxGeometry>
                </mxCell>
                <mxCell id="3LBCeSW4Zflb0pGlj7fX-107" style="shape=tableRow;horizontal=0;startSize=0;swimlaneHead=0;swimlaneBody=0;top=0;left=0;bottom=0;right=0;collapsible=0;dropTarget=0;fillColor=none;points=[[0,0.5],[1,0.5]];portConstraint=eastwest;" parent="39" vertex="1">
                    <mxGeometry y="951" width="767" height="26" as="geometry"/>
                </mxCell>
                <mxCell id="3LBCeSW4Zflb0pGlj7fX-108" value="/users/id" style="shape=partialRectangle;html=1;whiteSpace=wrap;connectable=0;fillColor=none;top=0;left=0;bottom=0;right=0;overflow=hidden;fontSize=16;" parent="3LBCeSW4Zflb0pGlj7fX-107" vertex="1">
                    <mxGeometry width="300" height="26" as="geometry">
                        <mxRectangle width="300" height="26" as="alternateBounds"/>
                    </mxGeometry>
                </mxCell>
                <mxCell id="3LBCeSW4Zflb0pGlj7fX-109" value="&lt;font style=&quot;font-size: 14px;&quot;&gt;DELETE&lt;/font&gt;" style="shape=partialRectangle;html=1;whiteSpace=wrap;connectable=0;fillColor=none;top=0;left=0;bottom=0;right=0;overflow=hidden;" parent="3LBCeSW4Zflb0pGlj7fX-107" vertex="1">
                    <mxGeometry x="300" width="234" height="26" as="geometry">
                        <mxRectangle width="234" height="26" as="alternateBounds"/>
                    </mxGeometry>
                </mxCell>
                <mxCell id="3LBCeSW4Zflb0pGlj7fX-110" value="&lt;font style=&quot;font-size: 14px;&quot;&gt;delete user (Admin not-working)&lt;/font&gt;" style="shape=partialRectangle;html=1;whiteSpace=wrap;connectable=0;fillColor=none;top=0;left=0;bottom=0;right=0;overflow=hidden;" parent="3LBCeSW4Zflb0pGlj7fX-107" vertex="1">
                    <mxGeometry x="534" width="233" height="26" as="geometry">
                        <mxRectangle width="233" height="26" as="alternateBounds"/>
                    </mxGeometry>
                </mxCell>
                <mxCell id="3LBCeSW4Zflb0pGlj7fX-111" style="shape=tableRow;horizontal=0;startSize=0;swimlaneHead=0;swimlaneBody=0;top=0;left=0;bottom=0;right=0;collapsible=0;dropTarget=0;fillColor=none;points=[[0,0.5],[1,0.5]];portConstraint=eastwest;" parent="39" vertex="1">
                    <mxGeometry y="977" width="767" height="25" as="geometry"/>
                </mxCell>
                <mxCell id="3LBCeSW4Zflb0pGlj7fX-112" style="shape=partialRectangle;html=1;whiteSpace=wrap;connectable=0;fillColor=none;top=0;left=0;bottom=0;right=0;overflow=hidden;" parent="3LBCeSW4Zflb0pGlj7fX-111" vertex="1">
                    <mxGeometry width="300" height="25" as="geometry">
                        <mxRectangle width="300" height="25" as="alternateBounds"/>
                    </mxGeometry>
                </mxCell>
                <mxCell id="3LBCeSW4Zflb0pGlj7fX-113" style="shape=partialRectangle;html=1;whiteSpace=wrap;connectable=0;fillColor=none;top=0;left=0;bottom=0;right=0;overflow=hidden;" parent="3LBCeSW4Zflb0pGlj7fX-111" vertex="1">
                    <mxGeometry x="300" width="234" height="25" as="geometry">
                        <mxRectangle width="234" height="25" as="alternateBounds"/>
                    </mxGeometry>
                </mxCell>
                <mxCell id="3LBCeSW4Zflb0pGlj7fX-114" style="shape=partialRectangle;html=1;whiteSpace=wrap;connectable=0;fillColor=none;top=0;left=0;bottom=0;right=0;overflow=hidden;" parent="3LBCeSW4Zflb0pGlj7fX-111" vertex="1">
                    <mxGeometry x="534" width="233" height="25" as="geometry">
                        <mxRectangle width="233" height="25" as="alternateBounds"/>
                    </mxGeometry>
                </mxCell>
                <mxCell id="3LBCeSW4Zflb0pGlj7fX-159" style="shape=tableRow;horizontal=0;startSize=0;swimlaneHead=0;swimlaneBody=0;top=0;left=0;bottom=0;right=0;collapsible=0;dropTarget=0;fillColor=none;points=[[0,0.5],[1,0.5]];portConstraint=eastwest;" parent="39" vertex="1">
                    <mxGeometry y="1002" width="767" height="26" as="geometry"/>
                </mxCell>
                <mxCell id="3LBCeSW4Zflb0pGlj7fX-160" value="/user_clients" style="shape=partialRectangle;html=1;whiteSpace=wrap;connectable=0;fillColor=none;top=0;left=0;bottom=0;right=0;overflow=hidden;fontSize=16;" parent="3LBCeSW4Zflb0pGlj7fX-159" vertex="1">
                    <mxGeometry width="300" height="26" as="geometry">
                        <mxRectangle width="300" height="26" as="alternateBounds"/>
                    </mxGeometry>
                </mxCell>
                <mxCell id="3LBCeSW4Zflb0pGlj7fX-161" value="&lt;font style=&quot;font-size: 14px;&quot;&gt;GET&lt;/font&gt;" style="shape=partialRectangle;html=1;whiteSpace=wrap;connectable=0;fillColor=none;top=0;left=0;bottom=0;right=0;overflow=hidden;" parent="3LBCeSW4Zflb0pGlj7fX-159" vertex="1">
                    <mxGeometry x="300" width="234" height="26" as="geometry">
                        <mxRectangle width="234" height="26" as="alternateBounds"/>
                    </mxGeometry>
                </mxCell>
                <mxCell id="3LBCeSW4Zflb0pGlj7fX-162" value="View Client list" style="shape=partialRectangle;html=1;whiteSpace=wrap;connectable=0;fillColor=none;top=0;left=0;bottom=0;right=0;overflow=hidden;" parent="3LBCeSW4Zflb0pGlj7fX-159" vertex="1">
                    <mxGeometry x="534" width="233" height="26" as="geometry">
                        <mxRectangle width="233" height="26" as="alternateBounds"/>
                    </mxGeometry>
                </mxCell>
                <mxCell id="3LBCeSW4Zflb0pGlj7fX-151" style="shape=tableRow;horizontal=0;startSize=0;swimlaneHead=0;swimlaneBody=0;top=0;left=0;bottom=0;right=0;collapsible=0;dropTarget=0;fillColor=none;points=[[0,0.5],[1,0.5]];portConstraint=eastwest;" parent="39" vertex="1">
                    <mxGeometry y="1028" width="767" height="25" as="geometry"/>
                </mxCell>
                <mxCell id="3LBCeSW4Zflb0pGlj7fX-152" value="&lt;span style=&quot;font-size: 16px;&quot;&gt;/user_clients&lt;/span&gt;" style="shape=partialRectangle;html=1;whiteSpace=wrap;connectable=0;fillColor=none;top=0;left=0;bottom=0;right=0;overflow=hidden;" parent="3LBCeSW4Zflb0pGlj7fX-151" vertex="1">
                    <mxGeometry width="300" height="25" as="geometry">
                        <mxRectangle width="300" height="25" as="alternateBounds"/>
                    </mxGeometry>
                </mxCell>
                <mxCell id="3LBCeSW4Zflb0pGlj7fX-153" value="&lt;font style=&quot;font-size: 14px;&quot;&gt;POST&lt;/font&gt;" style="shape=partialRectangle;html=1;whiteSpace=wrap;connectable=0;fillColor=none;top=0;left=0;bottom=0;right=0;overflow=hidden;" parent="3LBCeSW4Zflb0pGlj7fX-151" vertex="1">
                    <mxGeometry x="300" width="234" height="25" as="geometry">
                        <mxRectangle width="234" height="25" as="alternateBounds"/>
                    </mxGeometry>
                </mxCell>
                <mxCell id="3LBCeSW4Zflb0pGlj7fX-154" value="Add a client" style="shape=partialRectangle;html=1;whiteSpace=wrap;connectable=0;fillColor=none;top=0;left=0;bottom=0;right=0;overflow=hidden;fontSize=14;" parent="3LBCeSW4Zflb0pGlj7fX-151" vertex="1">
                    <mxGeometry x="534" width="233" height="25" as="geometry">
                        <mxRectangle width="233" height="25" as="alternateBounds"/>
                    </mxGeometry>
                </mxCell>
                <mxCell id="3LBCeSW4Zflb0pGlj7fX-147" style="shape=tableRow;horizontal=0;startSize=0;swimlaneHead=0;swimlaneBody=0;top=0;left=0;bottom=0;right=0;collapsible=0;dropTarget=0;fillColor=none;points=[[0,0.5],[1,0.5]];portConstraint=eastwest;" parent="39" vertex="1">
                    <mxGeometry y="1053" width="767" height="26" as="geometry"/>
                </mxCell>
                <mxCell id="3LBCeSW4Zflb0pGlj7fX-148" style="shape=partialRectangle;html=1;whiteSpace=wrap;connectable=0;fillColor=none;top=0;left=0;bottom=0;right=0;overflow=hidden;" parent="3LBCeSW4Zflb0pGlj7fX-147" vertex="1">
                    <mxGeometry width="300" height="26" as="geometry">
                        <mxRectangle width="300" height="26" as="alternateBounds"/>
                    </mxGeometry>
                </mxCell>
                <mxCell id="3LBCeSW4Zflb0pGlj7fX-149" style="shape=partialRectangle;html=1;whiteSpace=wrap;connectable=0;fillColor=none;top=0;left=0;bottom=0;right=0;overflow=hidden;" parent="3LBCeSW4Zflb0pGlj7fX-147" vertex="1">
                    <mxGeometry x="300" width="234" height="26" as="geometry">
                        <mxRectangle width="234" height="26" as="alternateBounds"/>
                    </mxGeometry>
                </mxCell>
                <mxCell id="3LBCeSW4Zflb0pGlj7fX-150" style="shape=partialRectangle;html=1;whiteSpace=wrap;connectable=0;fillColor=none;top=0;left=0;bottom=0;right=0;overflow=hidden;" parent="3LBCeSW4Zflb0pGlj7fX-147" vertex="1">
                    <mxGeometry x="534" width="233" height="26" as="geometry">
                        <mxRectangle width="233" height="26" as="alternateBounds"/>
                    </mxGeometry>
                </mxCell>
                <mxCell id="3LBCeSW4Zflb0pGlj7fX-143" style="shape=tableRow;horizontal=0;startSize=0;swimlaneHead=0;swimlaneBody=0;top=0;left=0;bottom=0;right=0;collapsible=0;dropTarget=0;fillColor=none;points=[[0,0.5],[1,0.5]];portConstraint=eastwest;" parent="39" vertex="1">
                    <mxGeometry y="1079" width="767" height="25" as="geometry"/>
                </mxCell>
                <mxCell id="3LBCeSW4Zflb0pGlj7fX-144" value="&lt;span style=&quot;font-size: 16px;&quot;&gt;/user_clients/id&lt;/span&gt;" style="shape=partialRectangle;html=1;whiteSpace=wrap;connectable=0;fillColor=none;top=0;left=0;bottom=0;right=0;overflow=hidden;" parent="3LBCeSW4Zflb0pGlj7fX-143" vertex="1">
                    <mxGeometry width="300" height="25" as="geometry">
                        <mxRectangle width="300" height="25" as="alternateBounds"/>
                    </mxGeometry>
                </mxCell>
                <mxCell id="3LBCeSW4Zflb0pGlj7fX-145" value="&lt;font style=&quot;font-size: 14px;&quot;&gt;GET&lt;/font&gt;" style="shape=partialRectangle;html=1;whiteSpace=wrap;connectable=0;fillColor=none;top=0;left=0;bottom=0;right=0;overflow=hidden;" parent="3LBCeSW4Zflb0pGlj7fX-143" vertex="1">
                    <mxGeometry x="300" width="234" height="25" as="geometry">
                        <mxRectangle width="234" height="25" as="alternateBounds"/>
                    </mxGeometry>
                </mxCell>
                <mxCell id="3LBCeSW4Zflb0pGlj7fX-146" value="View selected client profile" style="shape=partialRectangle;html=1;whiteSpace=wrap;connectable=0;fillColor=none;top=0;left=0;bottom=0;right=0;overflow=hidden;fontSize=14;" parent="3LBCeSW4Zflb0pGlj7fX-143" vertex="1">
                    <mxGeometry x="534" width="233" height="25" as="geometry">
                        <mxRectangle width="233" height="25" as="alternateBounds"/>
                    </mxGeometry>
                </mxCell>
                <mxCell id="3LBCeSW4Zflb0pGlj7fX-139" style="shape=tableRow;horizontal=0;startSize=0;swimlaneHead=0;swimlaneBody=0;top=0;left=0;bottom=0;right=0;collapsible=0;dropTarget=0;fillColor=none;points=[[0,0.5],[1,0.5]];portConstraint=eastwest;" parent="39" vertex="1">
                    <mxGeometry y="1104" width="767" height="26" as="geometry"/>
                </mxCell>
                <mxCell id="3LBCeSW4Zflb0pGlj7fX-140" value="&lt;span style=&quot;font-size: 16px;&quot;&gt;/user_clients/id&lt;/span&gt;" style="shape=partialRectangle;html=1;whiteSpace=wrap;connectable=0;fillColor=none;top=0;left=0;bottom=0;right=0;overflow=hidden;" parent="3LBCeSW4Zflb0pGlj7fX-139" vertex="1">
                    <mxGeometry width="300" height="26" as="geometry">
                        <mxRectangle width="300" height="26" as="alternateBounds"/>
                    </mxGeometry>
                </mxCell>
                <mxCell id="3LBCeSW4Zflb0pGlj7fX-141" value="&lt;font style=&quot;font-size: 14px;&quot;&gt;PATCH&lt;/font&gt;" style="shape=partialRectangle;html=1;whiteSpace=wrap;connectable=0;fillColor=none;top=0;left=0;bottom=0;right=0;overflow=hidden;" parent="3LBCeSW4Zflb0pGlj7fX-139" vertex="1">
                    <mxGeometry x="300" width="234" height="26" as="geometry">
                        <mxRectangle width="234" height="26" as="alternateBounds"/>
                    </mxGeometry>
                </mxCell>
                <mxCell id="3LBCeSW4Zflb0pGlj7fX-142" value="update selected client profile" style="shape=partialRectangle;html=1;whiteSpace=wrap;connectable=0;fillColor=none;top=0;left=0;bottom=0;right=0;overflow=hidden;" parent="3LBCeSW4Zflb0pGlj7fX-139" vertex="1">
                    <mxGeometry x="534" width="233" height="26" as="geometry">
                        <mxRectangle width="233" height="26" as="alternateBounds"/>
                    </mxGeometry>
                </mxCell>
                <mxCell id="3LBCeSW4Zflb0pGlj7fX-135" style="shape=tableRow;horizontal=0;startSize=0;swimlaneHead=0;swimlaneBody=0;top=0;left=0;bottom=0;right=0;collapsible=0;dropTarget=0;fillColor=none;points=[[0,0.5],[1,0.5]];portConstraint=eastwest;" parent="39" vertex="1">
                    <mxGeometry y="1130" width="767" height="26" as="geometry"/>
                </mxCell>
                <mxCell id="3LBCeSW4Zflb0pGlj7fX-136" value="&lt;span style=&quot;font-size: 16px;&quot;&gt;/user_clients/id&lt;/span&gt;" style="shape=partialRectangle;html=1;whiteSpace=wrap;connectable=0;fillColor=none;top=0;left=0;bottom=0;right=0;overflow=hidden;" parent="3LBCeSW4Zflb0pGlj7fX-135" vertex="1">
                    <mxGeometry width="300" height="26" as="geometry">
                        <mxRectangle width="300" height="26" as="alternateBounds"/>
                    </mxGeometry>
                </mxCell>
                <mxCell id="3LBCeSW4Zflb0pGlj7fX-137" value="&lt;font style=&quot;font-size: 14px;&quot;&gt;DELETE&lt;/font&gt;" style="shape=partialRectangle;html=1;whiteSpace=wrap;connectable=0;fillColor=none;top=0;left=0;bottom=0;right=0;overflow=hidden;" parent="3LBCeSW4Zflb0pGlj7fX-135" vertex="1">
                    <mxGeometry x="300" width="234" height="26" as="geometry">
                        <mxRectangle width="234" height="26" as="alternateBounds"/>
                    </mxGeometry>
                </mxCell>
                <mxCell id="3LBCeSW4Zflb0pGlj7fX-138" value="delete client" style="shape=partialRectangle;html=1;whiteSpace=wrap;connectable=0;fillColor=none;top=0;left=0;bottom=0;right=0;overflow=hidden;" parent="3LBCeSW4Zflb0pGlj7fX-135" vertex="1">
                    <mxGeometry x="534" width="233" height="26" as="geometry">
                        <mxRectangle width="233" height="26" as="alternateBounds"/>
                    </mxGeometry>
                </mxCell>
                <mxCell id="3LBCeSW4Zflb0pGlj7fX-131" style="shape=tableRow;horizontal=0;startSize=0;swimlaneHead=0;swimlaneBody=0;top=0;left=0;bottom=0;right=0;collapsible=0;dropTarget=0;fillColor=none;points=[[0,0.5],[1,0.5]];portConstraint=eastwest;" parent="39" vertex="1">
                    <mxGeometry y="1156" width="767" height="25" as="geometry"/>
                </mxCell>
                <mxCell id="3LBCeSW4Zflb0pGlj7fX-132" style="shape=partialRectangle;html=1;whiteSpace=wrap;connectable=0;fillColor=none;top=0;left=0;bottom=0;right=0;overflow=hidden;" parent="3LBCeSW4Zflb0pGlj7fX-131" vertex="1">
                    <mxGeometry width="300" height="25" as="geometry">
                        <mxRectangle width="300" height="25" as="alternateBounds"/>
                    </mxGeometry>
                </mxCell>
                <mxCell id="3LBCeSW4Zflb0pGlj7fX-133" style="shape=partialRectangle;html=1;whiteSpace=wrap;connectable=0;fillColor=none;top=0;left=0;bottom=0;right=0;overflow=hidden;" parent="3LBCeSW4Zflb0pGlj7fX-131" vertex="1">
                    <mxGeometry x="300" width="234" height="25" as="geometry">
                        <mxRectangle width="234" height="25" as="alternateBounds"/>
                    </mxGeometry>
                </mxCell>
                <mxCell id="3LBCeSW4Zflb0pGlj7fX-134" style="shape=partialRectangle;html=1;whiteSpace=wrap;connectable=0;fillColor=none;top=0;left=0;bottom=0;right=0;overflow=hidden;" parent="3LBCeSW4Zflb0pGlj7fX-131" vertex="1">
                    <mxGeometry x="534" width="233" height="25" as="geometry">
                        <mxRectangle width="233" height="25" as="alternateBounds"/>
                    </mxGeometry>
                </mxCell>
                <mxCell id="3LBCeSW4Zflb0pGlj7fX-179" style="shape=tableRow;horizontal=0;startSize=0;swimlaneHead=0;swimlaneBody=0;top=0;left=0;bottom=0;right=0;collapsible=0;dropTarget=0;fillColor=none;points=[[0,0.5],[1,0.5]];portConstraint=eastwest;" parent="39" vertex="1">
                    <mxGeometry y="1181" width="767" height="26" as="geometry"/>
                </mxCell>
                <mxCell id="3LBCeSW4Zflb0pGlj7fX-180" value="/users/id/user_parameters" style="shape=partialRectangle;html=1;whiteSpace=wrap;connectable=0;fillColor=none;top=0;left=0;bottom=0;right=0;overflow=hidden;fontSize=16;" parent="3LBCeSW4Zflb0pGlj7fX-179" vertex="1">
                    <mxGeometry width="300" height="26" as="geometry">
                        <mxRectangle width="300" height="26" as="alternateBounds"/>
                    </mxGeometry>
                </mxCell>
                <mxCell id="3LBCeSW4Zflb0pGlj7fX-181" value="GET" style="shape=partialRectangle;html=1;whiteSpace=wrap;connectable=0;fillColor=none;top=0;left=0;bottom=0;right=0;overflow=hidden;fontSize=14;" parent="3LBCeSW4Zflb0pGlj7fX-179" vertex="1">
                    <mxGeometry x="300" width="234" height="26" as="geometry">
                        <mxRectangle width="234" height="26" as="alternateBounds"/>
                    </mxGeometry>
                </mxCell>
                <mxCell id="3LBCeSW4Zflb0pGlj7fX-182" value="View all user parameters" style="shape=partialRectangle;html=1;whiteSpace=wrap;connectable=0;fillColor=none;top=0;left=0;bottom=0;right=0;overflow=hidden;fontSize=14;" parent="3LBCeSW4Zflb0pGlj7fX-179" vertex="1">
                    <mxGeometry x="534" width="233" height="26" as="geometry">
                        <mxRectangle width="233" height="26" as="alternateBounds"/>
                    </mxGeometry>
                </mxCell>
                <mxCell id="3LBCeSW4Zflb0pGlj7fX-175" style="shape=tableRow;horizontal=0;startSize=0;swimlaneHead=0;swimlaneBody=0;top=0;left=0;bottom=0;right=0;collapsible=0;dropTarget=0;fillColor=none;points=[[0,0.5],[1,0.5]];portConstraint=eastwest;" parent="39" vertex="1">
                    <mxGeometry y="1207" width="767" height="25" as="geometry"/>
                </mxCell>
                <mxCell id="3LBCeSW4Zflb0pGlj7fX-176" value="&lt;span style=&quot;font-size: 16px;&quot;&gt;/users/id/user_parameters&lt;/span&gt;" style="shape=partialRectangle;html=1;whiteSpace=wrap;connectable=0;fillColor=none;top=0;left=0;bottom=0;right=0;overflow=hidden;" parent="3LBCeSW4Zflb0pGlj7fX-175" vertex="1">
                    <mxGeometry width="300" height="25" as="geometry">
                        <mxRectangle width="300" height="25" as="alternateBounds"/>
                    </mxGeometry>
                </mxCell>
                <mxCell id="3LBCeSW4Zflb0pGlj7fX-177" value="&lt;span style=&quot;font-size: 14px;&quot;&gt;POST&lt;/span&gt;" style="shape=partialRectangle;html=1;whiteSpace=wrap;connectable=0;fillColor=none;top=0;left=0;bottom=0;right=0;overflow=hidden;" parent="3LBCeSW4Zflb0pGlj7fX-175" vertex="1">
                    <mxGeometry x="300" width="234" height="25" as="geometry">
                        <mxRectangle width="234" height="25" as="alternateBounds"/>
                    </mxGeometry>
                </mxCell>
                <mxCell id="3LBCeSW4Zflb0pGlj7fX-178" value="add a user parameter" style="shape=partialRectangle;html=1;whiteSpace=wrap;connectable=0;fillColor=none;top=0;left=0;bottom=0;right=0;overflow=hidden;fontSize=14;" parent="3LBCeSW4Zflb0pGlj7fX-175" vertex="1">
                    <mxGeometry x="534" width="233" height="25" as="geometry">
                        <mxRectangle width="233" height="25" as="alternateBounds"/>
                    </mxGeometry>
                </mxCell>
                <mxCell id="3LBCeSW4Zflb0pGlj7fX-171" style="shape=tableRow;horizontal=0;startSize=0;swimlaneHead=0;swimlaneBody=0;top=0;left=0;bottom=0;right=0;collapsible=0;dropTarget=0;fillColor=none;points=[[0,0.5],[1,0.5]];portConstraint=eastwest;" parent="39" vertex="1">
                    <mxGeometry y="1232" width="767" height="26" as="geometry"/>
                </mxCell>
                <mxCell id="3LBCeSW4Zflb0pGlj7fX-172" value="" style="shape=partialRectangle;html=1;whiteSpace=wrap;connectable=0;fillColor=none;top=0;left=0;bottom=0;right=0;overflow=hidden;" parent="3LBCeSW4Zflb0pGlj7fX-171" vertex="1">
                    <mxGeometry width="300" height="26" as="geometry">
                        <mxRectangle width="300" height="26" as="alternateBounds"/>
                    </mxGeometry>
                </mxCell>
                <mxCell id="3LBCeSW4Zflb0pGlj7fX-173" value="" style="shape=partialRectangle;html=1;whiteSpace=wrap;connectable=0;fillColor=none;top=0;left=0;bottom=0;right=0;overflow=hidden;" parent="3LBCeSW4Zflb0pGlj7fX-171" vertex="1">
                    <mxGeometry x="300" width="234" height="26" as="geometry">
                        <mxRectangle width="234" height="26" as="alternateBounds"/>
                    </mxGeometry>
                </mxCell>
                <mxCell id="3LBCeSW4Zflb0pGlj7fX-174" style="shape=partialRectangle;html=1;whiteSpace=wrap;connectable=0;fillColor=none;top=0;left=0;bottom=0;right=0;overflow=hidden;" parent="3LBCeSW4Zflb0pGlj7fX-171" vertex="1">
                    <mxGeometry x="534" width="233" height="26" as="geometry">
                        <mxRectangle width="233" height="26" as="alternateBounds"/>
                    </mxGeometry>
                </mxCell>
                <mxCell id="3LBCeSW4Zflb0pGlj7fX-207" style="shape=tableRow;horizontal=0;startSize=0;swimlaneHead=0;swimlaneBody=0;top=0;left=0;bottom=0;right=0;collapsible=0;dropTarget=0;fillColor=none;points=[[0,0.5],[1,0.5]];portConstraint=eastwest;" parent="39" vertex="1">
                    <mxGeometry y="1258" width="767" height="25" as="geometry"/>
                </mxCell>
                <mxCell id="3LBCeSW4Zflb0pGlj7fX-208" value="/users/id/user_parameters/id" style="shape=partialRectangle;html=1;whiteSpace=wrap;connectable=0;fillColor=none;top=0;left=0;bottom=0;right=0;overflow=hidden;fontSize=16;" parent="3LBCeSW4Zflb0pGlj7fX-207" vertex="1">
                    <mxGeometry width="300" height="25" as="geometry">
                        <mxRectangle width="300" height="25" as="alternateBounds"/>
                    </mxGeometry>
                </mxCell>
                <mxCell id="3LBCeSW4Zflb0pGlj7fX-209" value="&lt;span style=&quot;font-size: 14px;&quot;&gt;GET&lt;/span&gt;" style="shape=partialRectangle;html=1;whiteSpace=wrap;connectable=0;fillColor=none;top=0;left=0;bottom=0;right=0;overflow=hidden;" parent="3LBCeSW4Zflb0pGlj7fX-207" vertex="1">
                    <mxGeometry x="300" width="234" height="25" as="geometry">
                        <mxRectangle width="234" height="25" as="alternateBounds"/>
                    </mxGeometry>
                </mxCell>
                <mxCell id="3LBCeSW4Zflb0pGlj7fX-210" value="get a specified user parameter" style="shape=partialRectangle;html=1;whiteSpace=wrap;connectable=0;fillColor=none;top=0;left=0;bottom=0;right=0;overflow=hidden;fontSize=14;" parent="3LBCeSW4Zflb0pGlj7fX-207" vertex="1">
                    <mxGeometry x="534" width="233" height="25" as="geometry">
                        <mxRectangle width="233" height="25" as="alternateBounds"/>
                    </mxGeometry>
                </mxCell>
                <mxCell id="3LBCeSW4Zflb0pGlj7fX-203" style="shape=tableRow;horizontal=0;startSize=0;swimlaneHead=0;swimlaneBody=0;top=0;left=0;bottom=0;right=0;collapsible=0;dropTarget=0;fillColor=none;points=[[0,0.5],[1,0.5]];portConstraint=eastwest;" parent="39" vertex="1">
                    <mxGeometry y="1283" width="767" height="25" as="geometry"/>
                </mxCell>
                <mxCell id="3LBCeSW4Zflb0pGlj7fX-204" value="&lt;span style=&quot;font-size: 16px;&quot;&gt;/users/id/user_parameters/id&lt;/span&gt;" style="shape=partialRectangle;html=1;whiteSpace=wrap;connectable=0;fillColor=none;top=0;left=0;bottom=0;right=0;overflow=hidden;" parent="3LBCeSW4Zflb0pGlj7fX-203" vertex="1">
                    <mxGeometry width="300" height="25" as="geometry">
                        <mxRectangle width="300" height="25" as="alternateBounds"/>
                    </mxGeometry>
                </mxCell>
                <mxCell id="3LBCeSW4Zflb0pGlj7fX-205" value="&lt;span style=&quot;font-size: 14px;&quot;&gt;PATCH&lt;/span&gt;" style="shape=partialRectangle;html=1;whiteSpace=wrap;connectable=0;fillColor=none;top=0;left=0;bottom=0;right=0;overflow=hidden;" parent="3LBCeSW4Zflb0pGlj7fX-203" vertex="1">
                    <mxGeometry x="300" width="234" height="25" as="geometry">
                        <mxRectangle width="234" height="25" as="alternateBounds"/>
                    </mxGeometry>
                </mxCell>
                <mxCell id="3LBCeSW4Zflb0pGlj7fX-206" value="update specified user parameter" style="shape=partialRectangle;html=1;whiteSpace=wrap;connectable=0;fillColor=none;top=0;left=0;bottom=0;right=0;overflow=hidden;fontSize=14;" parent="3LBCeSW4Zflb0pGlj7fX-203" vertex="1">
                    <mxGeometry x="534" width="233" height="25" as="geometry">
                        <mxRectangle width="233" height="25" as="alternateBounds"/>
                    </mxGeometry>
                </mxCell>
                <mxCell id="3LBCeSW4Zflb0pGlj7fX-199" style="shape=tableRow;horizontal=0;startSize=0;swimlaneHead=0;swimlaneBody=0;top=0;left=0;bottom=0;right=0;collapsible=0;dropTarget=0;fillColor=none;points=[[0,0.5],[1,0.5]];portConstraint=eastwest;" parent="39" vertex="1">
                    <mxGeometry y="1308" width="767" height="25" as="geometry"/>
                </mxCell>
                <mxCell id="3LBCeSW4Zflb0pGlj7fX-200" value="&lt;span style=&quot;font-size: 16px;&quot;&gt;/users/id/user_parameters/id&lt;/span&gt;" style="shape=partialRectangle;html=1;whiteSpace=wrap;connectable=0;fillColor=none;top=0;left=0;bottom=0;right=0;overflow=hidden;" parent="3LBCeSW4Zflb0pGlj7fX-199" vertex="1">
                    <mxGeometry width="300" height="25" as="geometry">
                        <mxRectangle width="300" height="25" as="alternateBounds"/>
                    </mxGeometry>
                </mxCell>
                <mxCell id="3LBCeSW4Zflb0pGlj7fX-201" value="&lt;span style=&quot;font-size: 14px;&quot;&gt;DELETE&lt;/span&gt;" style="shape=partialRectangle;html=1;whiteSpace=wrap;connectable=0;fillColor=none;top=0;left=0;bottom=0;right=0;overflow=hidden;" parent="3LBCeSW4Zflb0pGlj7fX-199" vertex="1">
                    <mxGeometry x="300" width="234" height="25" as="geometry">
                        <mxRectangle width="234" height="25" as="alternateBounds"/>
                    </mxGeometry>
                </mxCell>
                <mxCell id="3LBCeSW4Zflb0pGlj7fX-202" value="delete user parameter" style="shape=partialRectangle;html=1;whiteSpace=wrap;connectable=0;fillColor=none;top=0;left=0;bottom=0;right=0;overflow=hidden;fontSize=14;" parent="3LBCeSW4Zflb0pGlj7fX-199" vertex="1">
                    <mxGeometry x="534" width="233" height="25" as="geometry">
                        <mxRectangle width="233" height="25" as="alternateBounds"/>
                    </mxGeometry>
                </mxCell>
                <mxCell id="3LBCeSW4Zflb0pGlj7fX-195" style="shape=tableRow;horizontal=0;startSize=0;swimlaneHead=0;swimlaneBody=0;top=0;left=0;bottom=0;right=0;collapsible=0;dropTarget=0;fillColor=none;points=[[0,0.5],[1,0.5]];portConstraint=eastwest;" parent="39" vertex="1">
                    <mxGeometry y="1333" width="767" height="26" as="geometry"/>
                </mxCell>
                <mxCell id="3LBCeSW4Zflb0pGlj7fX-196" style="shape=partialRectangle;html=1;whiteSpace=wrap;connectable=0;fillColor=none;top=0;left=0;bottom=0;right=0;overflow=hidden;" parent="3LBCeSW4Zflb0pGlj7fX-195" vertex="1">
                    <mxGeometry width="300" height="26" as="geometry">
                        <mxRectangle width="300" height="26" as="alternateBounds"/>
                    </mxGeometry>
                </mxCell>
                <mxCell id="3LBCeSW4Zflb0pGlj7fX-197" style="shape=partialRectangle;html=1;whiteSpace=wrap;connectable=0;fillColor=none;top=0;left=0;bottom=0;right=0;overflow=hidden;" parent="3LBCeSW4Zflb0pGlj7fX-195" vertex="1">
                    <mxGeometry x="300" width="234" height="26" as="geometry">
                        <mxRectangle width="234" height="26" as="alternateBounds"/>
                    </mxGeometry>
                </mxCell>
                <mxCell id="3LBCeSW4Zflb0pGlj7fX-198" style="shape=partialRectangle;html=1;whiteSpace=wrap;connectable=0;fillColor=none;top=0;left=0;bottom=0;right=0;overflow=hidden;" parent="3LBCeSW4Zflb0pGlj7fX-195" vertex="1">
                    <mxGeometry x="534" width="233" height="26" as="geometry">
                        <mxRectangle width="233" height="26" as="alternateBounds"/>
                    </mxGeometry>
                </mxCell>
                <mxCell id="3LBCeSW4Zflb0pGlj7fX-191" style="shape=tableRow;horizontal=0;startSize=0;swimlaneHead=0;swimlaneBody=0;top=0;left=0;bottom=0;right=0;collapsible=0;dropTarget=0;fillColor=none;points=[[0,0.5],[1,0.5]];portConstraint=eastwest;" parent="39" vertex="1">
                    <mxGeometry y="1359" width="767" height="26" as="geometry"/>
                </mxCell>
                <mxCell id="3LBCeSW4Zflb0pGlj7fX-192" value="&lt;span style=&quot;font-size: 16px;&quot;&gt;/users/id/user_notes&lt;/span&gt;" style="shape=partialRectangle;html=1;whiteSpace=wrap;connectable=0;fillColor=none;top=0;left=0;bottom=0;right=0;overflow=hidden;" parent="3LBCeSW4Zflb0pGlj7fX-191" vertex="1">
                    <mxGeometry width="300" height="26" as="geometry">
                        <mxRectangle width="300" height="26" as="alternateBounds"/>
                    </mxGeometry>
                </mxCell>
                <mxCell id="3LBCeSW4Zflb0pGlj7fX-193" value="&lt;span style=&quot;font-size: 14px;&quot;&gt;GET&lt;/span&gt;" style="shape=partialRectangle;html=1;whiteSpace=wrap;connectable=0;fillColor=none;top=0;left=0;bottom=0;right=0;overflow=hidden;" parent="3LBCeSW4Zflb0pGlj7fX-191" vertex="1">
                    <mxGeometry x="300" width="234" height="26" as="geometry">
                        <mxRectangle width="234" height="26" as="alternateBounds"/>
                    </mxGeometry>
                </mxCell>
                <mxCell id="3LBCeSW4Zflb0pGlj7fX-194" value="display all user notes" style="shape=partialRectangle;html=1;whiteSpace=wrap;connectable=0;fillColor=none;top=0;left=0;bottom=0;right=0;overflow=hidden;fontSize=14;" parent="3LBCeSW4Zflb0pGlj7fX-191" vertex="1">
                    <mxGeometry x="534" width="233" height="26" as="geometry">
                        <mxRectangle width="233" height="26" as="alternateBounds"/>
                    </mxGeometry>
                </mxCell>
                <mxCell id="3LBCeSW4Zflb0pGlj7fX-187" style="shape=tableRow;horizontal=0;startSize=0;swimlaneHead=0;swimlaneBody=0;top=0;left=0;bottom=0;right=0;collapsible=0;dropTarget=0;fillColor=none;points=[[0,0.5],[1,0.5]];portConstraint=eastwest;" parent="39" vertex="1">
                    <mxGeometry y="1385" width="767" height="25" as="geometry"/>
                </mxCell>
                <mxCell id="3LBCeSW4Zflb0pGlj7fX-188" value="&lt;span style=&quot;font-size: 16px;&quot;&gt;/users/id/user_notes&lt;/span&gt;" style="shape=partialRectangle;html=1;whiteSpace=wrap;connectable=0;fillColor=none;top=0;left=0;bottom=0;right=0;overflow=hidden;" parent="3LBCeSW4Zflb0pGlj7fX-187" vertex="1">
                    <mxGeometry width="300" height="25" as="geometry">
                        <mxRectangle width="300" height="25" as="alternateBounds"/>
                    </mxGeometry>
                </mxCell>
                <mxCell id="3LBCeSW4Zflb0pGlj7fX-189" value="POST" style="shape=partialRectangle;html=1;whiteSpace=wrap;connectable=0;fillColor=none;top=0;left=0;bottom=0;right=0;overflow=hidden;fontSize=14;" parent="3LBCeSW4Zflb0pGlj7fX-187" vertex="1">
                    <mxGeometry x="300" width="234" height="25" as="geometry">
                        <mxRectangle width="234" height="25" as="alternateBounds"/>
                    </mxGeometry>
                </mxCell>
                <mxCell id="3LBCeSW4Zflb0pGlj7fX-190" value="add a user note" style="shape=partialRectangle;html=1;whiteSpace=wrap;connectable=0;fillColor=none;top=0;left=0;bottom=0;right=0;overflow=hidden;fontSize=14;" parent="3LBCeSW4Zflb0pGlj7fX-187" vertex="1">
                    <mxGeometry x="534" width="233" height="25" as="geometry">
                        <mxRectangle width="233" height="25" as="alternateBounds"/>
                    </mxGeometry>
                </mxCell>
                <mxCell id="3LBCeSW4Zflb0pGlj7fX-183" style="shape=tableRow;horizontal=0;startSize=0;swimlaneHead=0;swimlaneBody=0;top=0;left=0;bottom=0;right=0;collapsible=0;dropTarget=0;fillColor=none;points=[[0,0.5],[1,0.5]];portConstraint=eastwest;" parent="39" vertex="1">
                    <mxGeometry y="1410" width="767" height="26" as="geometry"/>
                </mxCell>
                <mxCell id="3LBCeSW4Zflb0pGlj7fX-184" value="" style="shape=partialRectangle;html=1;whiteSpace=wrap;connectable=0;fillColor=none;top=0;left=0;bottom=0;right=0;overflow=hidden;fontSize=16;" parent="3LBCeSW4Zflb0pGlj7fX-183" vertex="1">
                    <mxGeometry width="300" height="26" as="geometry">
                        <mxRectangle width="300" height="26" as="alternateBounds"/>
                    </mxGeometry>
                </mxCell>
                <mxCell id="3LBCeSW4Zflb0pGlj7fX-185" style="shape=partialRectangle;html=1;whiteSpace=wrap;connectable=0;fillColor=none;top=0;left=0;bottom=0;right=0;overflow=hidden;" parent="3LBCeSW4Zflb0pGlj7fX-183" vertex="1">
                    <mxGeometry x="300" width="234" height="26" as="geometry">
                        <mxRectangle width="234" height="26" as="alternateBounds"/>
                    </mxGeometry>
                </mxCell>
                <mxCell id="3LBCeSW4Zflb0pGlj7fX-186" style="shape=partialRectangle;html=1;whiteSpace=wrap;connectable=0;fillColor=none;top=0;left=0;bottom=0;right=0;overflow=hidden;" parent="3LBCeSW4Zflb0pGlj7fX-183" vertex="1">
                    <mxGeometry x="534" width="233" height="26" as="geometry">
                        <mxRectangle width="233" height="26" as="alternateBounds"/>
                    </mxGeometry>
                </mxCell>
                <mxCell id="3LBCeSW4Zflb0pGlj7fX-167" style="shape=tableRow;horizontal=0;startSize=0;swimlaneHead=0;swimlaneBody=0;top=0;left=0;bottom=0;right=0;collapsible=0;dropTarget=0;fillColor=none;points=[[0,0.5],[1,0.5]];portConstraint=eastwest;" parent="39" vertex="1">
                    <mxGeometry y="1436" width="767" height="25" as="geometry"/>
                </mxCell>
                <mxCell id="3LBCeSW4Zflb0pGlj7fX-168" value="&lt;span style=&quot;font-size: 16px;&quot;&gt;/users/id/user_notes/id&lt;/span&gt;" style="shape=partialRectangle;html=1;whiteSpace=wrap;connectable=0;fillColor=none;top=0;left=0;bottom=0;right=0;overflow=hidden;" parent="3LBCeSW4Zflb0pGlj7fX-167" vertex="1">
                    <mxGeometry width="300" height="25" as="geometry">
                        <mxRectangle width="300" height="25" as="alternateBounds"/>
                    </mxGeometry>
                </mxCell>
                <mxCell id="3LBCeSW4Zflb0pGlj7fX-169" value="&lt;span style=&quot;font-size: 14px;&quot;&gt;GET&lt;/span&gt;" style="shape=partialRectangle;html=1;whiteSpace=wrap;connectable=0;fillColor=none;top=0;left=0;bottom=0;right=0;overflow=hidden;" parent="3LBCeSW4Zflb0pGlj7fX-167" vertex="1">
                    <mxGeometry x="300" width="234" height="25" as="geometry">
                        <mxRectangle width="234" height="25" as="alternateBounds"/>
                    </mxGeometry>
                </mxCell>
                <mxCell id="3LBCeSW4Zflb0pGlj7fX-170" value="&lt;span style=&quot;font-size: 14px;&quot;&gt;view a selected note&lt;/span&gt;" style="shape=partialRectangle;html=1;whiteSpace=wrap;connectable=0;fillColor=none;top=0;left=0;bottom=0;right=0;overflow=hidden;" parent="3LBCeSW4Zflb0pGlj7fX-167" vertex="1">
                    <mxGeometry x="534" width="233" height="25" as="geometry">
                        <mxRectangle width="233" height="25" as="alternateBounds"/>
                    </mxGeometry>
                </mxCell>
                <mxCell id="3LBCeSW4Zflb0pGlj7fX-163" style="shape=tableRow;horizontal=0;startSize=0;swimlaneHead=0;swimlaneBody=0;top=0;left=0;bottom=0;right=0;collapsible=0;dropTarget=0;fillColor=none;points=[[0,0.5],[1,0.5]];portConstraint=eastwest;" parent="39" vertex="1">
                    <mxGeometry y="1461" width="767" height="26" as="geometry"/>
                </mxCell>
                <mxCell id="3LBCeSW4Zflb0pGlj7fX-164" value="&lt;span style=&quot;font-size: 16px;&quot;&gt;/users/id/user_notes/id&lt;/span&gt;" style="shape=partialRectangle;html=1;whiteSpace=wrap;connectable=0;fillColor=none;top=0;left=0;bottom=0;right=0;overflow=hidden;" parent="3LBCeSW4Zflb0pGlj7fX-163" vertex="1">
                    <mxGeometry width="300" height="26" as="geometry">
                        <mxRectangle width="300" height="26" as="alternateBounds"/>
                    </mxGeometry>
                </mxCell>
                <mxCell id="3LBCeSW4Zflb0pGlj7fX-165" value="&lt;span style=&quot;font-size: 14px;&quot;&gt;PATCH&lt;/span&gt;" style="shape=partialRectangle;html=1;whiteSpace=wrap;connectable=0;fillColor=none;top=0;left=0;bottom=0;right=0;overflow=hidden;fontSize=15;" parent="3LBCeSW4Zflb0pGlj7fX-163" vertex="1">
                    <mxGeometry x="300" width="234" height="26" as="geometry">
                        <mxRectangle width="234" height="26" as="alternateBounds"/>
                    </mxGeometry>
                </mxCell>
                <mxCell id="3LBCeSW4Zflb0pGlj7fX-166" value="update selected note" style="shape=partialRectangle;html=1;whiteSpace=wrap;connectable=0;fillColor=none;top=0;left=0;bottom=0;right=0;overflow=hidden;fontSize=14;" parent="3LBCeSW4Zflb0pGlj7fX-163" vertex="1">
                    <mxGeometry x="534" width="233" height="26" as="geometry">
                        <mxRectangle width="233" height="26" as="alternateBounds"/>
                    </mxGeometry>
                </mxCell>
                <mxCell id="3LBCeSW4Zflb0pGlj7fX-215" style="shape=tableRow;horizontal=0;startSize=0;swimlaneHead=0;swimlaneBody=0;top=0;left=0;bottom=0;right=0;collapsible=0;dropTarget=0;fillColor=none;points=[[0,0.5],[1,0.5]];portConstraint=eastwest;" parent="39" vertex="1">
                    <mxGeometry y="1487" width="767" height="25" as="geometry"/>
                </mxCell>
                <mxCell id="3LBCeSW4Zflb0pGlj7fX-216" value="&lt;span style=&quot;font-size: 16px;&quot;&gt;/users/id/user_notes/id&lt;/span&gt;" style="shape=partialRectangle;html=1;whiteSpace=wrap;connectable=0;fillColor=none;top=0;left=0;bottom=0;right=0;overflow=hidden;" parent="3LBCeSW4Zflb0pGlj7fX-215" vertex="1">
                    <mxGeometry width="300" height="25" as="geometry">
                        <mxRectangle width="300" height="25" as="alternateBounds"/>
                    </mxGeometry>
                </mxCell>
                <mxCell id="3LBCeSW4Zflb0pGlj7fX-217" value="&lt;span style=&quot;font-size: 15px;&quot;&gt;DELETE&lt;/span&gt;" style="shape=partialRectangle;html=1;whiteSpace=wrap;connectable=0;fillColor=none;top=0;left=0;bottom=0;right=0;overflow=hidden;" parent="3LBCeSW4Zflb0pGlj7fX-215" vertex="1">
                    <mxGeometry x="300" width="234" height="25" as="geometry">
                        <mxRectangle width="234" height="25" as="alternateBounds"/>
                    </mxGeometry>
                </mxCell>
                <mxCell id="3LBCeSW4Zflb0pGlj7fX-218" value="delete note" style="shape=partialRectangle;html=1;whiteSpace=wrap;connectable=0;fillColor=none;top=0;left=0;bottom=0;right=0;overflow=hidden;" parent="3LBCeSW4Zflb0pGlj7fX-215" vertex="1">
                    <mxGeometry x="534" width="233" height="25" as="geometry">
                        <mxRectangle width="233" height="25" as="alternateBounds"/>
                    </mxGeometry>
                </mxCell>
                <mxCell id="170" style="shape=tableRow;horizontal=0;startSize=0;swimlaneHead=0;swimlaneBody=0;top=0;left=0;bottom=0;right=0;collapsible=0;dropTarget=0;fillColor=none;points=[[0,0.5],[1,0.5]];portConstraint=eastwest;" parent="39" vertex="1">
                    <mxGeometry y="1512" width="767" height="25" as="geometry"/>
                </mxCell>
                <mxCell id="171" style="shape=partialRectangle;html=1;whiteSpace=wrap;connectable=0;fillColor=none;top=0;left=0;bottom=0;right=0;overflow=hidden;" parent="170" vertex="1">
                    <mxGeometry width="300" height="25" as="geometry">
                        <mxRectangle width="300" height="25" as="alternateBounds"/>
                    </mxGeometry>
                </mxCell>
                <mxCell id="172" style="shape=partialRectangle;html=1;whiteSpace=wrap;connectable=0;fillColor=none;top=0;left=0;bottom=0;right=0;overflow=hidden;" parent="170" vertex="1">
                    <mxGeometry x="300" width="234" height="25" as="geometry">
                        <mxRectangle width="234" height="25" as="alternateBounds"/>
                    </mxGeometry>
                </mxCell>
                <mxCell id="173" style="shape=partialRectangle;html=1;whiteSpace=wrap;connectable=0;fillColor=none;top=0;left=0;bottom=0;right=0;overflow=hidden;" parent="170" vertex="1">
                    <mxGeometry x="534" width="233" height="25" as="geometry">
                        <mxRectangle width="233" height="25" as="alternateBounds"/>
                    </mxGeometry>
                </mxCell>
                <mxCell id="166" style="shape=tableRow;horizontal=0;startSize=0;swimlaneHead=0;swimlaneBody=0;top=0;left=0;bottom=0;right=0;collapsible=0;dropTarget=0;fillColor=none;points=[[0,0.5],[1,0.5]];portConstraint=eastwest;" parent="39" vertex="1">
                    <mxGeometry y="1537" width="767" height="25" as="geometry"/>
                </mxCell>
                <mxCell id="167" value="&lt;span style=&quot;font-size: 16px;&quot;&gt;/users/id/user_notifications&lt;/span&gt;" style="shape=partialRectangle;html=1;whiteSpace=wrap;connectable=0;fillColor=none;top=0;left=0;bottom=0;right=0;overflow=hidden;" parent="166" vertex="1">
                    <mxGeometry width="300" height="25" as="geometry">
                        <mxRectangle width="300" height="25" as="alternateBounds"/>
                    </mxGeometry>
                </mxCell>
                <mxCell id="168" value="&lt;meta charset=&quot;utf-8&quot;&gt;&lt;span style=&quot;color: rgb(240, 240, 240); font-family: Helvetica; font-size: 14px; font-style: normal; font-variant-ligatures: normal; font-variant-caps: normal; font-weight: 400; letter-spacing: normal; orphans: 2; text-align: center; text-indent: 0px; text-transform: none; widows: 2; word-spacing: 0px; -webkit-text-stroke-width: 0px; background-color: rgb(42, 37, 47); text-decoration-thickness: initial; text-decoration-style: initial; text-decoration-color: initial; float: none; display: inline !important;&quot;&gt;GET&lt;/span&gt;" style="shape=partialRectangle;html=1;whiteSpace=wrap;connectable=0;fillColor=none;top=0;left=0;bottom=0;right=0;overflow=hidden;" parent="166" vertex="1">
                    <mxGeometry x="300" width="234" height="25" as="geometry">
                        <mxRectangle width="234" height="25" as="alternateBounds"/>
                    </mxGeometry>
                </mxCell>
                <mxCell id="169" value="view all notifications" style="shape=partialRectangle;html=1;whiteSpace=wrap;connectable=0;fillColor=none;top=0;left=0;bottom=0;right=0;overflow=hidden;" parent="166" vertex="1">
                    <mxGeometry x="534" width="233" height="25" as="geometry">
                        <mxRectangle width="233" height="25" as="alternateBounds"/>
                    </mxGeometry>
                </mxCell>
                <mxCell id="162" style="shape=tableRow;horizontal=0;startSize=0;swimlaneHead=0;swimlaneBody=0;top=0;left=0;bottom=0;right=0;collapsible=0;dropTarget=0;fillColor=none;points=[[0,0.5],[1,0.5]];portConstraint=eastwest;" parent="39" vertex="1">
                    <mxGeometry y="1562" width="767" height="25" as="geometry"/>
                </mxCell>
                <mxCell id="163" value="&lt;span style=&quot;font-size: 16px;&quot;&gt;/users/id/user_notifications&lt;/span&gt;" style="shape=partialRectangle;html=1;whiteSpace=wrap;connectable=0;fillColor=none;top=0;left=0;bottom=0;right=0;overflow=hidden;" parent="162" vertex="1">
                    <mxGeometry width="300" height="25" as="geometry">
                        <mxRectangle width="300" height="25" as="alternateBounds"/>
                    </mxGeometry>
                </mxCell>
                <mxCell id="164" value="&lt;meta charset=&quot;utf-8&quot;&gt;&lt;span style=&quot;color: rgb(240, 240, 240); font-family: Helvetica; font-size: 14px; font-style: normal; font-variant-ligatures: normal; font-variant-caps: normal; font-weight: 400; letter-spacing: normal; orphans: 2; text-align: center; text-indent: 0px; text-transform: none; widows: 2; word-spacing: 0px; -webkit-text-stroke-width: 0px; background-color: rgb(42, 37, 47); text-decoration-thickness: initial; text-decoration-style: initial; text-decoration-color: initial; float: none; display: inline !important;&quot;&gt;POST&lt;/span&gt;" style="shape=partialRectangle;html=1;whiteSpace=wrap;connectable=0;fillColor=none;top=0;left=0;bottom=0;right=0;overflow=hidden;" parent="162" vertex="1">
                    <mxGeometry x="300" width="234" height="25" as="geometry">
                        <mxRectangle width="234" height="25" as="alternateBounds"/>
                    </mxGeometry>
                </mxCell>
                <mxCell id="165" value="add a notificaiton" style="shape=partialRectangle;html=1;whiteSpace=wrap;connectable=0;fillColor=none;top=0;left=0;bottom=0;right=0;overflow=hidden;" parent="162" vertex="1">
                    <mxGeometry x="534" width="233" height="25" as="geometry">
                        <mxRectangle width="233" height="25" as="alternateBounds"/>
                    </mxGeometry>
                </mxCell>
                <mxCell id="158" style="shape=tableRow;horizontal=0;startSize=0;swimlaneHead=0;swimlaneBody=0;top=0;left=0;bottom=0;right=0;collapsible=0;dropTarget=0;fillColor=none;points=[[0,0.5],[1,0.5]];portConstraint=eastwest;" parent="39" vertex="1">
                    <mxGeometry y="1587" width="767" height="25" as="geometry"/>
                </mxCell>
                <mxCell id="159" style="shape=partialRectangle;html=1;whiteSpace=wrap;connectable=0;fillColor=none;top=0;left=0;bottom=0;right=0;overflow=hidden;" parent="158" vertex="1">
                    <mxGeometry width="300" height="25" as="geometry">
                        <mxRectangle width="300" height="25" as="alternateBounds"/>
                    </mxGeometry>
                </mxCell>
                <mxCell id="160" style="shape=partialRectangle;html=1;whiteSpace=wrap;connectable=0;fillColor=none;top=0;left=0;bottom=0;right=0;overflow=hidden;" parent="158" vertex="1">
                    <mxGeometry x="300" width="234" height="25" as="geometry">
                        <mxRectangle width="234" height="25" as="alternateBounds"/>
                    </mxGeometry>
                </mxCell>
                <mxCell id="161" style="shape=partialRectangle;html=1;whiteSpace=wrap;connectable=0;fillColor=none;top=0;left=0;bottom=0;right=0;overflow=hidden;" parent="158" vertex="1">
                    <mxGeometry x="534" width="233" height="25" as="geometry">
                        <mxRectangle width="233" height="25" as="alternateBounds"/>
                    </mxGeometry>
                </mxCell>
                <mxCell id="154" style="shape=tableRow;horizontal=0;startSize=0;swimlaneHead=0;swimlaneBody=0;top=0;left=0;bottom=0;right=0;collapsible=0;dropTarget=0;fillColor=none;points=[[0,0.5],[1,0.5]];portConstraint=eastwest;" parent="39" vertex="1">
                    <mxGeometry y="1612" width="767" height="25" as="geometry"/>
                </mxCell>
                <mxCell id="155" value="&lt;span style=&quot;font-size: 16px;&quot;&gt;/users/id/user_notifications/id&lt;/span&gt;" style="shape=partialRectangle;html=1;whiteSpace=wrap;connectable=0;fillColor=none;top=0;left=0;bottom=0;right=0;overflow=hidden;" parent="154" vertex="1">
                    <mxGeometry width="300" height="25" as="geometry">
                        <mxRectangle width="300" height="25" as="alternateBounds"/>
                    </mxGeometry>
                </mxCell>
                <mxCell id="156" value="&lt;meta charset=&quot;utf-8&quot;&gt;&lt;span style=&quot;color: rgb(240, 240, 240); font-family: Helvetica; font-size: 14px; font-style: normal; font-variant-ligatures: normal; font-variant-caps: normal; font-weight: 400; letter-spacing: normal; orphans: 2; text-align: center; text-indent: 0px; text-transform: none; widows: 2; word-spacing: 0px; -webkit-text-stroke-width: 0px; background-color: rgb(42, 37, 47); text-decoration-thickness: initial; text-decoration-style: initial; text-decoration-color: initial; float: none; display: inline !important;&quot;&gt;GET&lt;/span&gt;" style="shape=partialRectangle;html=1;whiteSpace=wrap;connectable=0;fillColor=none;top=0;left=0;bottom=0;right=0;overflow=hidden;" parent="154" vertex="1">
                    <mxGeometry x="300" width="234" height="25" as="geometry">
                        <mxRectangle width="234" height="25" as="alternateBounds"/>
                    </mxGeometry>
                </mxCell>
                <mxCell id="157" value="view all user notifications" style="shape=partialRectangle;html=1;whiteSpace=wrap;connectable=0;fillColor=none;top=0;left=0;bottom=0;right=0;overflow=hidden;" parent="154" vertex="1">
                    <mxGeometry x="534" width="233" height="25" as="geometry">
                        <mxRectangle width="233" height="25" as="alternateBounds"/>
                    </mxGeometry>
                </mxCell>
                <mxCell id="150" style="shape=tableRow;horizontal=0;startSize=0;swimlaneHead=0;swimlaneBody=0;top=0;left=0;bottom=0;right=0;collapsible=0;dropTarget=0;fillColor=none;points=[[0,0.5],[1,0.5]];portConstraint=eastwest;" parent="39" vertex="1">
                    <mxGeometry y="1637" width="767" height="25" as="geometry"/>
                </mxCell>
                <mxCell id="151" value="&lt;span style=&quot;font-size: 16px;&quot;&gt;/users/id/user_notifications/id&lt;/span&gt;" style="shape=partialRectangle;html=1;whiteSpace=wrap;connectable=0;fillColor=none;top=0;left=0;bottom=0;right=0;overflow=hidden;" parent="150" vertex="1">
                    <mxGeometry width="300" height="25" as="geometry">
                        <mxRectangle width="300" height="25" as="alternateBounds"/>
                    </mxGeometry>
                </mxCell>
                <mxCell id="152" value="&lt;meta charset=&quot;utf-8&quot;&gt;&lt;span style=&quot;color: rgb(240, 240, 240); font-family: Helvetica; font-size: 15px; font-style: normal; font-variant-ligatures: normal; font-variant-caps: normal; font-weight: 400; letter-spacing: normal; orphans: 2; text-align: center; text-indent: 0px; text-transform: none; widows: 2; word-spacing: 0px; -webkit-text-stroke-width: 0px; background-color: rgb(42, 37, 47); text-decoration-thickness: initial; text-decoration-style: initial; text-decoration-color: initial; float: none; display: inline !important;&quot;&gt;DELETE&lt;/span&gt;" style="shape=partialRectangle;html=1;whiteSpace=wrap;connectable=0;fillColor=none;top=0;left=0;bottom=0;right=0;overflow=hidden;" parent="150" vertex="1">
                    <mxGeometry x="300" width="234" height="25" as="geometry">
                        <mxRectangle width="234" height="25" as="alternateBounds"/>
                    </mxGeometry>
                </mxCell>
                <mxCell id="153" value="delete a user notifcation" style="shape=partialRectangle;html=1;whiteSpace=wrap;connectable=0;fillColor=none;top=0;left=0;bottom=0;right=0;overflow=hidden;" parent="150" vertex="1">
                    <mxGeometry x="534" width="233" height="25" as="geometry">
                        <mxRectangle width="233" height="25" as="alternateBounds"/>
                    </mxGeometry>
                </mxCell>
                <mxCell id="146" style="shape=tableRow;horizontal=0;startSize=0;swimlaneHead=0;swimlaneBody=0;top=0;left=0;bottom=0;right=0;collapsible=0;dropTarget=0;fillColor=none;points=[[0,0.5],[1,0.5]];portConstraint=eastwest;" parent="39" vertex="1">
                    <mxGeometry y="1662" width="767" height="25" as="geometry"/>
                </mxCell>
                <mxCell id="147" value="" style="shape=partialRectangle;html=1;whiteSpace=wrap;connectable=0;fillColor=none;top=0;left=0;bottom=0;right=0;overflow=hidden;" parent="146" vertex="1">
                    <mxGeometry width="300" height="25" as="geometry">
                        <mxRectangle width="300" height="25" as="alternateBounds"/>
                    </mxGeometry>
                </mxCell>
                <mxCell id="148" style="shape=partialRectangle;html=1;whiteSpace=wrap;connectable=0;fillColor=none;top=0;left=0;bottom=0;right=0;overflow=hidden;" parent="146" vertex="1">
                    <mxGeometry x="300" width="234" height="25" as="geometry">
                        <mxRectangle width="234" height="25" as="alternateBounds"/>
                    </mxGeometry>
                </mxCell>
                <mxCell id="149" style="shape=partialRectangle;html=1;whiteSpace=wrap;connectable=0;fillColor=none;top=0;left=0;bottom=0;right=0;overflow=hidden;" parent="146" vertex="1">
                    <mxGeometry x="534" width="233" height="25" as="geometry">
                        <mxRectangle width="233" height="25" as="alternateBounds"/>
                    </mxGeometry>
                </mxCell>
                <mxCell id="142" style="shape=tableRow;horizontal=0;startSize=0;swimlaneHead=0;swimlaneBody=0;top=0;left=0;bottom=0;right=0;collapsible=0;dropTarget=0;fillColor=none;points=[[0,0.5],[1,0.5]];portConstraint=eastwest;" parent="39" vertex="1">
                    <mxGeometry y="1687" width="767" height="25" as="geometry"/>
                </mxCell>
                <mxCell id="143" value="&lt;span style=&quot;font-size: 16px;&quot;&gt;/users/id/user_reports&lt;/span&gt;" style="shape=partialRectangle;html=1;whiteSpace=wrap;connectable=0;fillColor=none;top=0;left=0;bottom=0;right=0;overflow=hidden;" parent="142" vertex="1">
                    <mxGeometry width="300" height="25" as="geometry">
                        <mxRectangle width="300" height="25" as="alternateBounds"/>
                    </mxGeometry>
                </mxCell>
                <mxCell id="144" value="&lt;meta charset=&quot;utf-8&quot;&gt;&lt;span style=&quot;color: rgb(240, 240, 240); font-family: Helvetica; font-size: 14px; font-style: normal; font-variant-ligatures: normal; font-variant-caps: normal; font-weight: 400; letter-spacing: normal; orphans: 2; text-align: center; text-indent: 0px; text-transform: none; widows: 2; word-spacing: 0px; -webkit-text-stroke-width: 0px; background-color: rgb(42, 37, 47); text-decoration-thickness: initial; text-decoration-style: initial; text-decoration-color: initial; float: none; display: inline !important;&quot;&gt;GET&lt;/span&gt;" style="shape=partialRectangle;html=1;whiteSpace=wrap;connectable=0;fillColor=none;top=0;left=0;bottom=0;right=0;overflow=hidden;" parent="142" vertex="1">
                    <mxGeometry x="300" width="234" height="25" as="geometry">
                        <mxRectangle width="234" height="25" as="alternateBounds"/>
                    </mxGeometry>
                </mxCell>
                <mxCell id="145" value="view all user reports" style="shape=partialRectangle;html=1;whiteSpace=wrap;connectable=0;fillColor=none;top=0;left=0;bottom=0;right=0;overflow=hidden;" parent="142" vertex="1">
                    <mxGeometry x="534" width="233" height="25" as="geometry">
                        <mxRectangle width="233" height="25" as="alternateBounds"/>
                    </mxGeometry>
                </mxCell>
                <mxCell id="138" style="shape=tableRow;horizontal=0;startSize=0;swimlaneHead=0;swimlaneBody=0;top=0;left=0;bottom=0;right=0;collapsible=0;dropTarget=0;fillColor=none;points=[[0,0.5],[1,0.5]];portConstraint=eastwest;" parent="39" vertex="1">
                    <mxGeometry y="1712" width="767" height="25" as="geometry"/>
                </mxCell>
                <mxCell id="139" value="&lt;span style=&quot;font-size: 16px;&quot;&gt;/users/id/user_reports&lt;/span&gt;" style="shape=partialRectangle;html=1;whiteSpace=wrap;connectable=0;fillColor=none;top=0;left=0;bottom=0;right=0;overflow=hidden;" parent="138" vertex="1">
                    <mxGeometry width="300" height="25" as="geometry">
                        <mxRectangle width="300" height="25" as="alternateBounds"/>
                    </mxGeometry>
                </mxCell>
                <mxCell id="140" value="&lt;span style=&quot;font-size: 14px;&quot;&gt;POST&lt;/span&gt;" style="shape=partialRectangle;html=1;whiteSpace=wrap;connectable=0;fillColor=none;top=0;left=0;bottom=0;right=0;overflow=hidden;" parent="138" vertex="1">
                    <mxGeometry x="300" width="234" height="25" as="geometry">
                        <mxRectangle width="234" height="25" as="alternateBounds"/>
                    </mxGeometry>
                </mxCell>
                <mxCell id="141" value="post a report" style="shape=partialRectangle;html=1;whiteSpace=wrap;connectable=0;fillColor=none;top=0;left=0;bottom=0;right=0;overflow=hidden;" parent="138" vertex="1">
                    <mxGeometry x="534" width="233" height="25" as="geometry">
                        <mxRectangle width="233" height="25" as="alternateBounds"/>
                    </mxGeometry>
                </mxCell>
                <mxCell id="134" style="shape=tableRow;horizontal=0;startSize=0;swimlaneHead=0;swimlaneBody=0;top=0;left=0;bottom=0;right=0;collapsible=0;dropTarget=0;fillColor=none;points=[[0,0.5],[1,0.5]];portConstraint=eastwest;" parent="39" vertex="1">
                    <mxGeometry y="1737" width="767" height="25" as="geometry"/>
                </mxCell>
                <mxCell id="135" style="shape=partialRectangle;html=1;whiteSpace=wrap;connectable=0;fillColor=none;top=0;left=0;bottom=0;right=0;overflow=hidden;" parent="134" vertex="1">
                    <mxGeometry width="300" height="25" as="geometry">
                        <mxRectangle width="300" height="25" as="alternateBounds"/>
                    </mxGeometry>
                </mxCell>
                <mxCell id="136" style="shape=partialRectangle;html=1;whiteSpace=wrap;connectable=0;fillColor=none;top=0;left=0;bottom=0;right=0;overflow=hidden;" parent="134" vertex="1">
                    <mxGeometry x="300" width="234" height="25" as="geometry">
                        <mxRectangle width="234" height="25" as="alternateBounds"/>
                    </mxGeometry>
                </mxCell>
                <mxCell id="137" style="shape=partialRectangle;html=1;whiteSpace=wrap;connectable=0;fillColor=none;top=0;left=0;bottom=0;right=0;overflow=hidden;" parent="134" vertex="1">
                    <mxGeometry x="534" width="233" height="25" as="geometry">
                        <mxRectangle width="233" height="25" as="alternateBounds"/>
                    </mxGeometry>
                </mxCell>
                <mxCell id="130" style="shape=tableRow;horizontal=0;startSize=0;swimlaneHead=0;swimlaneBody=0;top=0;left=0;bottom=0;right=0;collapsible=0;dropTarget=0;fillColor=none;points=[[0,0.5],[1,0.5]];portConstraint=eastwest;" parent="39" vertex="1">
                    <mxGeometry y="1762" width="767" height="25" as="geometry"/>
                </mxCell>
                <mxCell id="131" value="&lt;span style=&quot;font-size: 16px;&quot;&gt;/users/id/user_reports/id&lt;/span&gt;" style="shape=partialRectangle;html=1;whiteSpace=wrap;connectable=0;fillColor=none;top=0;left=0;bottom=0;right=0;overflow=hidden;" parent="130" vertex="1">
                    <mxGeometry width="300" height="25" as="geometry">
                        <mxRectangle width="300" height="25" as="alternateBounds"/>
                    </mxGeometry>
                </mxCell>
                <mxCell id="132" value="&lt;span style=&quot;font-size: 14px;&quot;&gt;GET&lt;/span&gt;" style="shape=partialRectangle;html=1;whiteSpace=wrap;connectable=0;fillColor=none;top=0;left=0;bottom=0;right=0;overflow=hidden;" parent="130" vertex="1">
                    <mxGeometry x="300" width="234" height="25" as="geometry">
                        <mxRectangle width="234" height="25" as="alternateBounds"/>
                    </mxGeometry>
                </mxCell>
                <mxCell id="133" value="get a specific user report" style="shape=partialRectangle;html=1;whiteSpace=wrap;connectable=0;fillColor=none;top=0;left=0;bottom=0;right=0;overflow=hidden;" parent="130" vertex="1">
                    <mxGeometry x="534" width="233" height="25" as="geometry">
                        <mxRectangle width="233" height="25" as="alternateBounds"/>
                    </mxGeometry>
                </mxCell>
                <mxCell id="126" style="shape=tableRow;horizontal=0;startSize=0;swimlaneHead=0;swimlaneBody=0;top=0;left=0;bottom=0;right=0;collapsible=0;dropTarget=0;fillColor=none;points=[[0,0.5],[1,0.5]];portConstraint=eastwest;" parent="39" vertex="1">
                    <mxGeometry y="1787" width="767" height="25" as="geometry"/>
                </mxCell>
                <mxCell id="127" value="&lt;span style=&quot;font-size: 16px;&quot;&gt;/users/id/user_reports/id&lt;/span&gt;" style="shape=partialRectangle;html=1;whiteSpace=wrap;connectable=0;fillColor=none;top=0;left=0;bottom=0;right=0;overflow=hidden;" parent="126" vertex="1">
                    <mxGeometry width="300" height="25" as="geometry">
                        <mxRectangle width="300" height="25" as="alternateBounds"/>
                    </mxGeometry>
                </mxCell>
                <mxCell id="128" value="&lt;span style=&quot;font-size: 15px;&quot;&gt;DELETE&lt;/span&gt;" style="shape=partialRectangle;html=1;whiteSpace=wrap;connectable=0;fillColor=none;top=0;left=0;bottom=0;right=0;overflow=hidden;" parent="126" vertex="1">
                    <mxGeometry x="300" width="234" height="25" as="geometry">
                        <mxRectangle width="234" height="25" as="alternateBounds"/>
                    </mxGeometry>
                </mxCell>
                <mxCell id="129" value="delete a user report" style="shape=partialRectangle;html=1;whiteSpace=wrap;connectable=0;fillColor=none;top=0;left=0;bottom=0;right=0;overflow=hidden;" parent="126" vertex="1">
                    <mxGeometry x="534" width="233" height="25" as="geometry">
                        <mxRectangle width="233" height="25" as="alternateBounds"/>
                    </mxGeometry>
                </mxCell>
                <mxCell id="122" style="shape=tableRow;horizontal=0;startSize=0;swimlaneHead=0;swimlaneBody=0;top=0;left=0;bottom=0;right=0;collapsible=0;dropTarget=0;fillColor=none;points=[[0,0.5],[1,0.5]];portConstraint=eastwest;" parent="39" vertex="1">
                    <mxGeometry y="1812" width="767" height="25" as="geometry"/>
                </mxCell>
                <mxCell id="123" style="shape=partialRectangle;html=1;whiteSpace=wrap;connectable=0;fillColor=none;top=0;left=0;bottom=0;right=0;overflow=hidden;" parent="122" vertex="1">
                    <mxGeometry width="300" height="25" as="geometry">
                        <mxRectangle width="300" height="25" as="alternateBounds"/>
                    </mxGeometry>
                </mxCell>
                <mxCell id="124" style="shape=partialRectangle;html=1;whiteSpace=wrap;connectable=0;fillColor=none;top=0;left=0;bottom=0;right=0;overflow=hidden;" parent="122" vertex="1">
                    <mxGeometry x="300" width="234" height="25" as="geometry">
                        <mxRectangle width="234" height="25" as="alternateBounds"/>
                    </mxGeometry>
                </mxCell>
                <mxCell id="125" style="shape=partialRectangle;html=1;whiteSpace=wrap;connectable=0;fillColor=none;top=0;left=0;bottom=0;right=0;overflow=hidden;" parent="122" vertex="1">
                    <mxGeometry x="534" width="233" height="25" as="geometry">
                        <mxRectangle width="233" height="25" as="alternateBounds"/>
                    </mxGeometry>
                </mxCell>
                <mxCell id="118" style="shape=tableRow;horizontal=0;startSize=0;swimlaneHead=0;swimlaneBody=0;top=0;left=0;bottom=0;right=0;collapsible=0;dropTarget=0;fillColor=none;points=[[0,0.5],[1,0.5]];portConstraint=eastwest;" parent="39" vertex="1">
                    <mxGeometry y="1837" width="767" height="25" as="geometry"/>
                </mxCell>
                <mxCell id="119" value="&lt;span style=&quot;font-size: 16px;&quot;&gt;/user_clients/id/user_client_contacts&lt;/span&gt;" style="shape=partialRectangle;html=1;whiteSpace=wrap;connectable=0;fillColor=none;top=0;left=0;bottom=0;right=0;overflow=hidden;" parent="118" vertex="1">
                    <mxGeometry width="300" height="25" as="geometry">
                        <mxRectangle width="300" height="25" as="alternateBounds"/>
                    </mxGeometry>
                </mxCell>
                <mxCell id="120" value="&lt;span style=&quot;font-size: 14px;&quot;&gt;GET&lt;/span&gt;" style="shape=partialRectangle;html=1;whiteSpace=wrap;connectable=0;fillColor=none;top=0;left=0;bottom=0;right=0;overflow=hidden;" parent="118" vertex="1">
                    <mxGeometry x="300" width="234" height="25" as="geometry">
                        <mxRectangle width="234" height="25" as="alternateBounds"/>
                    </mxGeometry>
                </mxCell>
                <mxCell id="121" value="view all client contacts" style="shape=partialRectangle;html=1;whiteSpace=wrap;connectable=0;fillColor=none;top=0;left=0;bottom=0;right=0;overflow=hidden;" parent="118" vertex="1">
                    <mxGeometry x="534" width="233" height="25" as="geometry">
                        <mxRectangle width="233" height="25" as="alternateBounds"/>
                    </mxGeometry>
                </mxCell>
                <mxCell id="114" style="shape=tableRow;horizontal=0;startSize=0;swimlaneHead=0;swimlaneBody=0;top=0;left=0;bottom=0;right=0;collapsible=0;dropTarget=0;fillColor=none;points=[[0,0.5],[1,0.5]];portConstraint=eastwest;" parent="39" vertex="1">
                    <mxGeometry y="1862" width="767" height="25" as="geometry"/>
                </mxCell>
                <mxCell id="115" value="&lt;span style=&quot;font-size: 16px;&quot;&gt;/user_clients/id/user_client_contacts&lt;/span&gt;" style="shape=partialRectangle;html=1;whiteSpace=wrap;connectable=0;fillColor=none;top=0;left=0;bottom=0;right=0;overflow=hidden;" parent="114" vertex="1">
                    <mxGeometry width="300" height="25" as="geometry">
                        <mxRectangle width="300" height="25" as="alternateBounds"/>
                    </mxGeometry>
                </mxCell>
                <mxCell id="116" value="&lt;span style=&quot;font-size: 14px;&quot;&gt;POST&lt;/span&gt;" style="shape=partialRectangle;html=1;whiteSpace=wrap;connectable=0;fillColor=none;top=0;left=0;bottom=0;right=0;overflow=hidden;" parent="114" vertex="1">
                    <mxGeometry x="300" width="234" height="25" as="geometry">
                        <mxRectangle width="234" height="25" as="alternateBounds"/>
                    </mxGeometry>
                </mxCell>
                <mxCell id="117" value="add a client contact" style="shape=partialRectangle;html=1;whiteSpace=wrap;connectable=0;fillColor=none;top=0;left=0;bottom=0;right=0;overflow=hidden;" parent="114" vertex="1">
                    <mxGeometry x="534" width="233" height="25" as="geometry">
                        <mxRectangle width="233" height="25" as="alternateBounds"/>
                    </mxGeometry>
                </mxCell>
                <mxCell id="110" style="shape=tableRow;horizontal=0;startSize=0;swimlaneHead=0;swimlaneBody=0;top=0;left=0;bottom=0;right=0;collapsible=0;dropTarget=0;fillColor=none;points=[[0,0.5],[1,0.5]];portConstraint=eastwest;" parent="39" vertex="1">
                    <mxGeometry y="1887" width="767" height="25" as="geometry"/>
                </mxCell>
                <mxCell id="111" style="shape=partialRectangle;html=1;whiteSpace=wrap;connectable=0;fillColor=none;top=0;left=0;bottom=0;right=0;overflow=hidden;" parent="110" vertex="1">
                    <mxGeometry width="300" height="25" as="geometry">
                        <mxRectangle width="300" height="25" as="alternateBounds"/>
                    </mxGeometry>
                </mxCell>
                <mxCell id="112" style="shape=partialRectangle;html=1;whiteSpace=wrap;connectable=0;fillColor=none;top=0;left=0;bottom=0;right=0;overflow=hidden;" parent="110" vertex="1">
                    <mxGeometry x="300" width="234" height="25" as="geometry">
                        <mxRectangle width="234" height="25" as="alternateBounds"/>
                    </mxGeometry>
                </mxCell>
                <mxCell id="113" style="shape=partialRectangle;html=1;whiteSpace=wrap;connectable=0;fillColor=none;top=0;left=0;bottom=0;right=0;overflow=hidden;" parent="110" vertex="1">
                    <mxGeometry x="534" width="233" height="25" as="geometry">
                        <mxRectangle width="233" height="25" as="alternateBounds"/>
                    </mxGeometry>
                </mxCell>
                <mxCell id="106" style="shape=tableRow;horizontal=0;startSize=0;swimlaneHead=0;swimlaneBody=0;top=0;left=0;bottom=0;right=0;collapsible=0;dropTarget=0;fillColor=none;points=[[0,0.5],[1,0.5]];portConstraint=eastwest;" parent="39" vertex="1">
                    <mxGeometry y="1912" width="767" height="25" as="geometry"/>
                </mxCell>
                <mxCell id="107" value="&lt;span style=&quot;font-size: 16px;&quot;&gt;/user_clients/id/user_client_contacts/id&lt;/span&gt;" style="shape=partialRectangle;html=1;whiteSpace=wrap;connectable=0;fillColor=none;top=0;left=0;bottom=0;right=0;overflow=hidden;" parent="106" vertex="1">
                    <mxGeometry width="300" height="25" as="geometry">
                        <mxRectangle width="300" height="25" as="alternateBounds"/>
                    </mxGeometry>
                </mxCell>
                <mxCell id="108" value="&lt;span style=&quot;font-size: 14px;&quot;&gt;GET&lt;/span&gt;" style="shape=partialRectangle;html=1;whiteSpace=wrap;connectable=0;fillColor=none;top=0;left=0;bottom=0;right=0;overflow=hidden;" parent="106" vertex="1">
                    <mxGeometry x="300" width="234" height="25" as="geometry">
                        <mxRectangle width="234" height="25" as="alternateBounds"/>
                    </mxGeometry>
                </mxCell>
                <mxCell id="109" value="get a specific client contact" style="shape=partialRectangle;html=1;whiteSpace=wrap;connectable=0;fillColor=none;top=0;left=0;bottom=0;right=0;overflow=hidden;" parent="106" vertex="1">
                    <mxGeometry x="534" width="233" height="25" as="geometry">
                        <mxRectangle width="233" height="25" as="alternateBounds"/>
                    </mxGeometry>
                </mxCell>
                <mxCell id="102" style="shape=tableRow;horizontal=0;startSize=0;swimlaneHead=0;swimlaneBody=0;top=0;left=0;bottom=0;right=0;collapsible=0;dropTarget=0;fillColor=none;points=[[0,0.5],[1,0.5]];portConstraint=eastwest;" parent="39" vertex="1">
                    <mxGeometry y="1937" width="767" height="25" as="geometry"/>
                </mxCell>
                <mxCell id="103" value="&lt;span style=&quot;font-size: 16px;&quot;&gt;/user_clients/id/user_client_contacts/id&lt;/span&gt;" style="shape=partialRectangle;html=1;whiteSpace=wrap;connectable=0;fillColor=none;top=0;left=0;bottom=0;right=0;overflow=hidden;" parent="102" vertex="1">
                    <mxGeometry width="300" height="25" as="geometry">
                        <mxRectangle width="300" height="25" as="alternateBounds"/>
                    </mxGeometry>
                </mxCell>
                <mxCell id="104" value="&lt;span style=&quot;font-size: 14px;&quot;&gt;PATCH&lt;/span&gt;" style="shape=partialRectangle;html=1;whiteSpace=wrap;connectable=0;fillColor=none;top=0;left=0;bottom=0;right=0;overflow=hidden;" parent="102" vertex="1">
                    <mxGeometry x="300" width="234" height="25" as="geometry">
                        <mxRectangle width="234" height="25" as="alternateBounds"/>
                    </mxGeometry>
                </mxCell>
                <mxCell id="105" value="update client contact info" style="shape=partialRectangle;html=1;whiteSpace=wrap;connectable=0;fillColor=none;top=0;left=0;bottom=0;right=0;overflow=hidden;" parent="102" vertex="1">
                    <mxGeometry x="534" width="233" height="25" as="geometry">
                        <mxRectangle width="233" height="25" as="alternateBounds"/>
                    </mxGeometry>
                </mxCell>
                <mxCell id="98" style="shape=tableRow;horizontal=0;startSize=0;swimlaneHead=0;swimlaneBody=0;top=0;left=0;bottom=0;right=0;collapsible=0;dropTarget=0;fillColor=none;points=[[0,0.5],[1,0.5]];portConstraint=eastwest;" parent="39" vertex="1">
                    <mxGeometry y="1962" width="767" height="25" as="geometry"/>
                </mxCell>
                <mxCell id="99" value="&lt;span style=&quot;font-size: 16px;&quot;&gt;/user_clients/id/user_client_contacts/id&lt;/span&gt;" style="shape=partialRectangle;html=1;whiteSpace=wrap;connectable=0;fillColor=none;top=0;left=0;bottom=0;right=0;overflow=hidden;" parent="98" vertex="1">
                    <mxGeometry width="300" height="25" as="geometry">
                        <mxRectangle width="300" height="25" as="alternateBounds"/>
                    </mxGeometry>
                </mxCell>
                <mxCell id="100" value="&lt;span style=&quot;font-size: 15px;&quot;&gt;DELETE&lt;/span&gt;" style="shape=partialRectangle;html=1;whiteSpace=wrap;connectable=0;fillColor=none;top=0;left=0;bottom=0;right=0;overflow=hidden;" parent="98" vertex="1">
                    <mxGeometry x="300" width="234" height="25" as="geometry">
                        <mxRectangle width="234" height="25" as="alternateBounds"/>
                    </mxGeometry>
                </mxCell>
                <mxCell id="101" value="delete client contact" style="shape=partialRectangle;html=1;whiteSpace=wrap;connectable=0;fillColor=none;top=0;left=0;bottom=0;right=0;overflow=hidden;" parent="98" vertex="1">
                    <mxGeometry x="534" width="233" height="25" as="geometry">
                        <mxRectangle width="233" height="25" as="alternateBounds"/>
                    </mxGeometry>
                </mxCell>
                <mxCell id="94" style="shape=tableRow;horizontal=0;startSize=0;swimlaneHead=0;swimlaneBody=0;top=0;left=0;bottom=0;right=0;collapsible=0;dropTarget=0;fillColor=none;points=[[0,0.5],[1,0.5]];portConstraint=eastwest;" parent="39" vertex="1">
                    <mxGeometry y="1987" width="767" height="25" as="geometry"/>
                </mxCell>
                <mxCell id="95" style="shape=partialRectangle;html=1;whiteSpace=wrap;connectable=0;fillColor=none;top=0;left=0;bottom=0;right=0;overflow=hidden;" parent="94" vertex="1">
                    <mxGeometry width="300" height="25" as="geometry">
                        <mxRectangle width="300" height="25" as="alternateBounds"/>
                    </mxGeometry>
                </mxCell>
                <mxCell id="96" style="shape=partialRectangle;html=1;whiteSpace=wrap;connectable=0;fillColor=none;top=0;left=0;bottom=0;right=0;overflow=hidden;" parent="94" vertex="1">
                    <mxGeometry x="300" width="234" height="25" as="geometry">
                        <mxRectangle width="234" height="25" as="alternateBounds"/>
                    </mxGeometry>
                </mxCell>
                <mxCell id="97" style="shape=partialRectangle;html=1;whiteSpace=wrap;connectable=0;fillColor=none;top=0;left=0;bottom=0;right=0;overflow=hidden;" parent="94" vertex="1">
                    <mxGeometry x="534" width="233" height="25" as="geometry">
                        <mxRectangle width="233" height="25" as="alternateBounds"/>
                    </mxGeometry>
                </mxCell>
                <mxCell id="90" style="shape=tableRow;horizontal=0;startSize=0;swimlaneHead=0;swimlaneBody=0;top=0;left=0;bottom=0;right=0;collapsible=0;dropTarget=0;fillColor=none;points=[[0,0.5],[1,0.5]];portConstraint=eastwest;" parent="39" vertex="1">
                    <mxGeometry y="2012" width="767" height="25" as="geometry"/>
                </mxCell>
                <mxCell id="91" value="&lt;span style=&quot;font-size: 16px;&quot;&gt;/user_clients/id/user_client_notes&lt;/span&gt;" style="shape=partialRectangle;html=1;whiteSpace=wrap;connectable=0;fillColor=none;top=0;left=0;bottom=0;right=0;overflow=hidden;" parent="90" vertex="1">
                    <mxGeometry width="300" height="25" as="geometry">
                        <mxRectangle width="300" height="25" as="alternateBounds"/>
                    </mxGeometry>
                </mxCell>
                <mxCell id="92" value="&lt;meta charset=&quot;utf-8&quot;&gt;&lt;span style=&quot;color: rgb(240, 240, 240); font-family: Helvetica; font-size: 14px; font-style: normal; font-variant-ligatures: normal; font-variant-caps: normal; font-weight: 400; letter-spacing: normal; orphans: 2; text-align: center; text-indent: 0px; text-transform: none; widows: 2; word-spacing: 0px; -webkit-text-stroke-width: 0px; background-color: rgb(42, 37, 47); text-decoration-thickness: initial; text-decoration-style: initial; text-decoration-color: initial; float: none; display: inline !important;&quot;&gt;GET&lt;/span&gt;" style="shape=partialRectangle;html=1;whiteSpace=wrap;connectable=0;fillColor=none;top=0;left=0;bottom=0;right=0;overflow=hidden;" parent="90" vertex="1">
                    <mxGeometry x="300" width="234" height="25" as="geometry">
                        <mxRectangle width="234" height="25" as="alternateBounds"/>
                    </mxGeometry>
                </mxCell>
                <mxCell id="93" value="view all user client notes" style="shape=partialRectangle;html=1;whiteSpace=wrap;connectable=0;fillColor=none;top=0;left=0;bottom=0;right=0;overflow=hidden;" parent="90" vertex="1">
                    <mxGeometry x="534" width="233" height="25" as="geometry">
                        <mxRectangle width="233" height="25" as="alternateBounds"/>
                    </mxGeometry>
                </mxCell>
                <mxCell id="86" style="shape=tableRow;horizontal=0;startSize=0;swimlaneHead=0;swimlaneBody=0;top=0;left=0;bottom=0;right=0;collapsible=0;dropTarget=0;fillColor=none;points=[[0,0.5],[1,0.5]];portConstraint=eastwest;" parent="39" vertex="1">
                    <mxGeometry y="2037" width="767" height="25" as="geometry"/>
                </mxCell>
                <mxCell id="87" value="&lt;span style=&quot;font-size: 16px;&quot;&gt;/user_clients/id/user_client_notes&lt;/span&gt;" style="shape=partialRectangle;html=1;whiteSpace=wrap;connectable=0;fillColor=none;top=0;left=0;bottom=0;right=0;overflow=hidden;" parent="86" vertex="1">
                    <mxGeometry width="300" height="25" as="geometry">
                        <mxRectangle width="300" height="25" as="alternateBounds"/>
                    </mxGeometry>
                </mxCell>
                <mxCell id="88" value="&lt;meta charset=&quot;utf-8&quot;&gt;&lt;span style=&quot;color: rgb(240, 240, 240); font-family: Helvetica; font-size: 14px; font-style: normal; font-variant-ligatures: normal; font-variant-caps: normal; font-weight: 400; letter-spacing: normal; orphans: 2; text-align: center; text-indent: 0px; text-transform: none; widows: 2; word-spacing: 0px; -webkit-text-stroke-width: 0px; background-color: rgb(42, 37, 47); text-decoration-thickness: initial; text-decoration-style: initial; text-decoration-color: initial; float: none; display: inline !important;&quot;&gt;POST&lt;/span&gt;" style="shape=partialRectangle;html=1;whiteSpace=wrap;connectable=0;fillColor=none;top=0;left=0;bottom=0;right=0;overflow=hidden;" parent="86" vertex="1">
                    <mxGeometry x="300" width="234" height="25" as="geometry">
                        <mxRectangle width="234" height="25" as="alternateBounds"/>
                    </mxGeometry>
                </mxCell>
                <mxCell id="89" value="add a client note" style="shape=partialRectangle;html=1;whiteSpace=wrap;connectable=0;fillColor=none;top=0;left=0;bottom=0;right=0;overflow=hidden;" parent="86" vertex="1">
                    <mxGeometry x="534" width="233" height="25" as="geometry">
                        <mxRectangle width="233" height="25" as="alternateBounds"/>
                    </mxGeometry>
                </mxCell>
                <mxCell id="82" style="shape=tableRow;horizontal=0;startSize=0;swimlaneHead=0;swimlaneBody=0;top=0;left=0;bottom=0;right=0;collapsible=0;dropTarget=0;fillColor=none;points=[[0,0.5],[1,0.5]];portConstraint=eastwest;" parent="39" vertex="1">
                    <mxGeometry y="2062" width="767" height="25" as="geometry"/>
                </mxCell>
                <mxCell id="83" style="shape=partialRectangle;html=1;whiteSpace=wrap;connectable=0;fillColor=none;top=0;left=0;bottom=0;right=0;overflow=hidden;" parent="82" vertex="1">
                    <mxGeometry width="300" height="25" as="geometry">
                        <mxRectangle width="300" height="25" as="alternateBounds"/>
                    </mxGeometry>
                </mxCell>
                <mxCell id="84" style="shape=partialRectangle;html=1;whiteSpace=wrap;connectable=0;fillColor=none;top=0;left=0;bottom=0;right=0;overflow=hidden;" parent="82" vertex="1">
                    <mxGeometry x="300" width="234" height="25" as="geometry">
                        <mxRectangle width="234" height="25" as="alternateBounds"/>
                    </mxGeometry>
                </mxCell>
                <mxCell id="85" style="shape=partialRectangle;html=1;whiteSpace=wrap;connectable=0;fillColor=none;top=0;left=0;bottom=0;right=0;overflow=hidden;" parent="82" vertex="1">
                    <mxGeometry x="534" width="233" height="25" as="geometry">
                        <mxRectangle width="233" height="25" as="alternateBounds"/>
                    </mxGeometry>
                </mxCell>
                <mxCell id="78" style="shape=tableRow;horizontal=0;startSize=0;swimlaneHead=0;swimlaneBody=0;top=0;left=0;bottom=0;right=0;collapsible=0;dropTarget=0;fillColor=none;points=[[0,0.5],[1,0.5]];portConstraint=eastwest;" parent="39" vertex="1">
                    <mxGeometry y="2087" width="767" height="25" as="geometry"/>
                </mxCell>
                <mxCell id="79" value="&lt;span style=&quot;font-size: 16px;&quot;&gt;/user_clients/id/user_client_notes/id&lt;/span&gt;" style="shape=partialRectangle;html=1;whiteSpace=wrap;connectable=0;fillColor=none;top=0;left=0;bottom=0;right=0;overflow=hidden;" parent="78" vertex="1">
                    <mxGeometry width="300" height="25" as="geometry">
                        <mxRectangle width="300" height="25" as="alternateBounds"/>
                    </mxGeometry>
                </mxCell>
                <mxCell id="80" value="&lt;meta charset=&quot;utf-8&quot;&gt;&lt;span style=&quot;color: rgb(240, 240, 240); font-family: Helvetica; font-size: 14px; font-style: normal; font-variant-ligatures: normal; font-variant-caps: normal; font-weight: 400; letter-spacing: normal; orphans: 2; text-align: center; text-indent: 0px; text-transform: none; widows: 2; word-spacing: 0px; -webkit-text-stroke-width: 0px; background-color: rgb(42, 37, 47); text-decoration-thickness: initial; text-decoration-style: initial; text-decoration-color: initial; float: none; display: inline !important;&quot;&gt;GET&lt;/span&gt;" style="shape=partialRectangle;html=1;whiteSpace=wrap;connectable=0;fillColor=none;top=0;left=0;bottom=0;right=0;overflow=hidden;" parent="78" vertex="1">
                    <mxGeometry x="300" width="234" height="25" as="geometry">
                        <mxRectangle width="234" height="25" as="alternateBounds"/>
                    </mxGeometry>
                </mxCell>
                <mxCell id="81" value="get a specific client note" style="shape=partialRectangle;html=1;whiteSpace=wrap;connectable=0;fillColor=none;top=0;left=0;bottom=0;right=0;overflow=hidden;" parent="78" vertex="1">
                    <mxGeometry x="534" width="233" height="25" as="geometry">
                        <mxRectangle width="233" height="25" as="alternateBounds"/>
                    </mxGeometry>
                </mxCell>
                <mxCell id="74" style="shape=tableRow;horizontal=0;startSize=0;swimlaneHead=0;swimlaneBody=0;top=0;left=0;bottom=0;right=0;collapsible=0;dropTarget=0;fillColor=none;points=[[0,0.5],[1,0.5]];portConstraint=eastwest;" parent="39" vertex="1">
                    <mxGeometry y="2112" width="767" height="25" as="geometry"/>
                </mxCell>
                <mxCell id="75" value="&lt;span style=&quot;font-size: 16px;&quot;&gt;/user_clients/id/user_client_notes/id&lt;/span&gt;" style="shape=partialRectangle;html=1;whiteSpace=wrap;connectable=0;fillColor=none;top=0;left=0;bottom=0;right=0;overflow=hidden;" parent="74" vertex="1">
                    <mxGeometry width="300" height="25" as="geometry">
                        <mxRectangle width="300" height="25" as="alternateBounds"/>
                    </mxGeometry>
                </mxCell>
                <mxCell id="76" value="&lt;span style=&quot;font-size: 14px;&quot;&gt;PATCH&lt;/span&gt;" style="shape=partialRectangle;html=1;whiteSpace=wrap;connectable=0;fillColor=none;top=0;left=0;bottom=0;right=0;overflow=hidden;" parent="74" vertex="1">
                    <mxGeometry x="300" width="234" height="25" as="geometry">
                        <mxRectangle width="234" height="25" as="alternateBounds"/>
                    </mxGeometry>
                </mxCell>
                <mxCell id="77" value="update a client note" style="shape=partialRectangle;html=1;whiteSpace=wrap;connectable=0;fillColor=none;top=0;left=0;bottom=0;right=0;overflow=hidden;" parent="74" vertex="1">
                    <mxGeometry x="534" width="233" height="25" as="geometry">
                        <mxRectangle width="233" height="25" as="alternateBounds"/>
                    </mxGeometry>
                </mxCell>
                <mxCell id="70" style="shape=tableRow;horizontal=0;startSize=0;swimlaneHead=0;swimlaneBody=0;top=0;left=0;bottom=0;right=0;collapsible=0;dropTarget=0;fillColor=none;points=[[0,0.5],[1,0.5]];portConstraint=eastwest;" parent="39" vertex="1">
                    <mxGeometry y="2137" width="767" height="25" as="geometry"/>
                </mxCell>
                <mxCell id="71" value="&lt;span style=&quot;font-size: 16px;&quot;&gt;/user_clients/id/user_client_notes/id&lt;/span&gt;" style="shape=partialRectangle;html=1;whiteSpace=wrap;connectable=0;fillColor=none;top=0;left=0;bottom=0;right=0;overflow=hidden;" parent="70" vertex="1">
                    <mxGeometry width="300" height="25" as="geometry">
                        <mxRectangle width="300" height="25" as="alternateBounds"/>
                    </mxGeometry>
                </mxCell>
                <mxCell id="72" value="&lt;meta charset=&quot;utf-8&quot;&gt;&lt;span style=&quot;color: rgb(240, 240, 240); font-family: Helvetica; font-size: 15px; font-style: normal; font-variant-ligatures: normal; font-variant-caps: normal; font-weight: 400; letter-spacing: normal; orphans: 2; text-align: center; text-indent: 0px; text-transform: none; widows: 2; word-spacing: 0px; -webkit-text-stroke-width: 0px; background-color: rgb(42, 37, 47); text-decoration-thickness: initial; text-decoration-style: initial; text-decoration-color: initial; float: none; display: inline !important;&quot;&gt;DELETE&lt;/span&gt;" style="shape=partialRectangle;html=1;whiteSpace=wrap;connectable=0;fillColor=none;top=0;left=0;bottom=0;right=0;overflow=hidden;" parent="70" vertex="1">
                    <mxGeometry x="300" width="234" height="25" as="geometry">
                        <mxRectangle width="234" height="25" as="alternateBounds"/>
                    </mxGeometry>
                </mxCell>
                <mxCell id="73" value="delete a client note" style="shape=partialRectangle;html=1;whiteSpace=wrap;connectable=0;fillColor=none;top=0;left=0;bottom=0;right=0;overflow=hidden;" parent="70" vertex="1">
                    <mxGeometry x="534" width="233" height="25" as="geometry">
                        <mxRectangle width="233" height="25" as="alternateBounds"/>
                    </mxGeometry>
                </mxCell>
                <mxCell id="66" style="shape=tableRow;horizontal=0;startSize=0;swimlaneHead=0;swimlaneBody=0;top=0;left=0;bottom=0;right=0;collapsible=0;dropTarget=0;fillColor=none;points=[[0,0.5],[1,0.5]];portConstraint=eastwest;" parent="39" vertex="1">
                    <mxGeometry y="2162" width="767" height="25" as="geometry"/>
                </mxCell>
                <mxCell id="67" style="shape=partialRectangle;html=1;whiteSpace=wrap;connectable=0;fillColor=none;top=0;left=0;bottom=0;right=0;overflow=hidden;" parent="66" vertex="1">
                    <mxGeometry width="300" height="25" as="geometry">
                        <mxRectangle width="300" height="25" as="alternateBounds"/>
                    </mxGeometry>
                </mxCell>
                <mxCell id="68" style="shape=partialRectangle;html=1;whiteSpace=wrap;connectable=0;fillColor=none;top=0;left=0;bottom=0;right=0;overflow=hidden;" parent="66" vertex="1">
                    <mxGeometry x="300" width="234" height="25" as="geometry">
                        <mxRectangle width="234" height="25" as="alternateBounds"/>
                    </mxGeometry>
                </mxCell>
                <mxCell id="69" style="shape=partialRectangle;html=1;whiteSpace=wrap;connectable=0;fillColor=none;top=0;left=0;bottom=0;right=0;overflow=hidden;" parent="66" vertex="1">
                    <mxGeometry x="534" width="233" height="25" as="geometry">
                        <mxRectangle width="233" height="25" as="alternateBounds"/>
                    </mxGeometry>
                </mxCell>
                <mxCell id="62" style="shape=tableRow;horizontal=0;startSize=0;swimlaneHead=0;swimlaneBody=0;top=0;left=0;bottom=0;right=0;collapsible=0;dropTarget=0;fillColor=none;points=[[0,0.5],[1,0.5]];portConstraint=eastwest;" parent="39" vertex="1">
                    <mxGeometry y="2187" width="767" height="25" as="geometry"/>
                </mxCell>
                <mxCell id="63" value="&lt;span style=&quot;font-size: 16px;&quot;&gt;/users/id/user_temp_params&lt;/span&gt;" style="shape=partialRectangle;html=1;whiteSpace=wrap;connectable=0;fillColor=none;top=0;left=0;bottom=0;right=0;overflow=hidden;" parent="62" vertex="1">
                    <mxGeometry width="300" height="25" as="geometry">
                        <mxRectangle width="300" height="25" as="alternateBounds"/>
                    </mxGeometry>
                </mxCell>
                <mxCell id="64" value="&lt;span style=&quot;font-size: 14px;&quot;&gt;GET&lt;/span&gt;" style="shape=partialRectangle;html=1;whiteSpace=wrap;connectable=0;fillColor=none;top=0;left=0;bottom=0;right=0;overflow=hidden;" parent="62" vertex="1">
                    <mxGeometry x="300" width="234" height="25" as="geometry">
                        <mxRectangle width="234" height="25" as="alternateBounds"/>
                    </mxGeometry>
                </mxCell>
                <mxCell id="65" value="view all user temp params" style="shape=partialRectangle;html=1;whiteSpace=wrap;connectable=0;fillColor=none;top=0;left=0;bottom=0;right=0;overflow=hidden;" parent="62" vertex="1">
                    <mxGeometry x="534" width="233" height="25" as="geometry">
                        <mxRectangle width="233" height="25" as="alternateBounds"/>
                    </mxGeometry>
                </mxCell>
                <mxCell id="58" style="shape=tableRow;horizontal=0;startSize=0;swimlaneHead=0;swimlaneBody=0;top=0;left=0;bottom=0;right=0;collapsible=0;dropTarget=0;fillColor=none;points=[[0,0.5],[1,0.5]];portConstraint=eastwest;" parent="39" vertex="1">
                    <mxGeometry y="2212" width="767" height="25" as="geometry"/>
                </mxCell>
                <mxCell id="59" value="&lt;span style=&quot;font-size: 16px;&quot;&gt;/users/id/user_temp_params&lt;/span&gt;" style="shape=partialRectangle;html=1;whiteSpace=wrap;connectable=0;fillColor=none;top=0;left=0;bottom=0;right=0;overflow=hidden;" parent="58" vertex="1">
                    <mxGeometry width="300" height="25" as="geometry">
                        <mxRectangle width="300" height="25" as="alternateBounds"/>
                    </mxGeometry>
                </mxCell>
                <mxCell id="60" value="&lt;span style=&quot;font-size: 14px;&quot;&gt;POST&lt;/span&gt;" style="shape=partialRectangle;html=1;whiteSpace=wrap;connectable=0;fillColor=none;top=0;left=0;bottom=0;right=0;overflow=hidden;" parent="58" vertex="1">
                    <mxGeometry x="300" width="234" height="25" as="geometry">
                        <mxRectangle width="234" height="25" as="alternateBounds"/>
                    </mxGeometry>
                </mxCell>
                <mxCell id="61" value="add a user temp param" style="shape=partialRectangle;html=1;whiteSpace=wrap;connectable=0;fillColor=none;top=0;left=0;bottom=0;right=0;overflow=hidden;" parent="58" vertex="1">
                    <mxGeometry x="534" width="233" height="25" as="geometry">
                        <mxRectangle width="233" height="25" as="alternateBounds"/>
                    </mxGeometry>
                </mxCell>
                <mxCell id="218" style="shape=tableRow;horizontal=0;startSize=0;swimlaneHead=0;swimlaneBody=0;top=0;left=0;bottom=0;right=0;collapsible=0;dropTarget=0;fillColor=none;points=[[0,0.5],[1,0.5]];portConstraint=eastwest;" parent="39" vertex="1">
                    <mxGeometry y="2237" width="767" height="25" as="geometry"/>
                </mxCell>
                <mxCell id="219" style="shape=partialRectangle;html=1;whiteSpace=wrap;connectable=0;fillColor=none;top=0;left=0;bottom=0;right=0;overflow=hidden;" parent="218" vertex="1">
                    <mxGeometry width="300" height="25" as="geometry">
                        <mxRectangle width="300" height="25" as="alternateBounds"/>
                    </mxGeometry>
                </mxCell>
                <mxCell id="220" style="shape=partialRectangle;html=1;whiteSpace=wrap;connectable=0;fillColor=none;top=0;left=0;bottom=0;right=0;overflow=hidden;" parent="218" vertex="1">
                    <mxGeometry x="300" width="234" height="25" as="geometry">
                        <mxRectangle width="234" height="25" as="alternateBounds"/>
                    </mxGeometry>
                </mxCell>
                <mxCell id="221" style="shape=partialRectangle;html=1;whiteSpace=wrap;connectable=0;fillColor=none;top=0;left=0;bottom=0;right=0;overflow=hidden;" parent="218" vertex="1">
                    <mxGeometry x="534" width="233" height="25" as="geometry">
                        <mxRectangle width="233" height="25" as="alternateBounds"/>
                    </mxGeometry>
                </mxCell>
                <mxCell id="214" style="shape=tableRow;horizontal=0;startSize=0;swimlaneHead=0;swimlaneBody=0;top=0;left=0;bottom=0;right=0;collapsible=0;dropTarget=0;fillColor=none;points=[[0,0.5],[1,0.5]];portConstraint=eastwest;" parent="39" vertex="1">
                    <mxGeometry y="2262" width="767" height="25" as="geometry"/>
                </mxCell>
                <mxCell id="215" value="&lt;span style=&quot;font-size: 16px;&quot;&gt;/users/id/user_temp_params/id&lt;/span&gt;" style="shape=partialRectangle;html=1;whiteSpace=wrap;connectable=0;fillColor=none;top=0;left=0;bottom=0;right=0;overflow=hidden;" parent="214" vertex="1">
                    <mxGeometry width="300" height="25" as="geometry">
                        <mxRectangle width="300" height="25" as="alternateBounds"/>
                    </mxGeometry>
                </mxCell>
                <mxCell id="216" value="&lt;span style=&quot;font-size: 14px;&quot;&gt;GET&lt;/span&gt;" style="shape=partialRectangle;html=1;whiteSpace=wrap;connectable=0;fillColor=none;top=0;left=0;bottom=0;right=0;overflow=hidden;" parent="214" vertex="1">
                    <mxGeometry x="300" width="234" height="25" as="geometry">
                        <mxRectangle width="234" height="25" as="alternateBounds"/>
                    </mxGeometry>
                </mxCell>
                <mxCell id="217" value="get a specific temp param" style="shape=partialRectangle;html=1;whiteSpace=wrap;connectable=0;fillColor=none;top=0;left=0;bottom=0;right=0;overflow=hidden;" parent="214" vertex="1">
                    <mxGeometry x="534" width="233" height="25" as="geometry">
                        <mxRectangle width="233" height="25" as="alternateBounds"/>
                    </mxGeometry>
                </mxCell>
                <mxCell id="210" style="shape=tableRow;horizontal=0;startSize=0;swimlaneHead=0;swimlaneBody=0;top=0;left=0;bottom=0;right=0;collapsible=0;dropTarget=0;fillColor=none;points=[[0,0.5],[1,0.5]];portConstraint=eastwest;" parent="39" vertex="1">
                    <mxGeometry y="2287" width="767" height="25" as="geometry"/>
                </mxCell>
                <mxCell id="211" value="&lt;span style=&quot;font-size: 16px;&quot;&gt;/users/id/user_temp_params/id&lt;/span&gt;" style="shape=partialRectangle;html=1;whiteSpace=wrap;connectable=0;fillColor=none;top=0;left=0;bottom=0;right=0;overflow=hidden;" parent="210" vertex="1">
                    <mxGeometry width="300" height="25" as="geometry">
                        <mxRectangle width="300" height="25" as="alternateBounds"/>
                    </mxGeometry>
                </mxCell>
                <mxCell id="212" value="&lt;span style=&quot;font-size: 14px;&quot;&gt;PATCH&lt;/span&gt;" style="shape=partialRectangle;html=1;whiteSpace=wrap;connectable=0;fillColor=none;top=0;left=0;bottom=0;right=0;overflow=hidden;" parent="210" vertex="1">
                    <mxGeometry x="300" width="234" height="25" as="geometry">
                        <mxRectangle width="234" height="25" as="alternateBounds"/>
                    </mxGeometry>
                </mxCell>
                <mxCell id="213" value="update a temp param" style="shape=partialRectangle;html=1;whiteSpace=wrap;connectable=0;fillColor=none;top=0;left=0;bottom=0;right=0;overflow=hidden;" parent="210" vertex="1">
                    <mxGeometry x="534" width="233" height="25" as="geometry">
                        <mxRectangle width="233" height="25" as="alternateBounds"/>
                    </mxGeometry>
                </mxCell>
                <mxCell id="206" style="shape=tableRow;horizontal=0;startSize=0;swimlaneHead=0;swimlaneBody=0;top=0;left=0;bottom=0;right=0;collapsible=0;dropTarget=0;fillColor=none;points=[[0,0.5],[1,0.5]];portConstraint=eastwest;" parent="39" vertex="1">
                    <mxGeometry y="2312" width="767" height="25" as="geometry"/>
                </mxCell>
                <mxCell id="207" value="&lt;span style=&quot;font-size: 16px;&quot;&gt;/users/id/user_temp_params/id&lt;/span&gt;" style="shape=partialRectangle;html=1;whiteSpace=wrap;connectable=0;fillColor=none;top=0;left=0;bottom=0;right=0;overflow=hidden;" parent="206" vertex="1">
                    <mxGeometry width="300" height="25" as="geometry">
                        <mxRectangle width="300" height="25" as="alternateBounds"/>
                    </mxGeometry>
                </mxCell>
                <mxCell id="208" value="&lt;meta charset=&quot;utf-8&quot;&gt;&lt;span style=&quot;color: rgb(240, 240, 240); font-family: Helvetica; font-size: 15px; font-style: normal; font-variant-ligatures: normal; font-variant-caps: normal; font-weight: 400; letter-spacing: normal; orphans: 2; text-align: center; text-indent: 0px; text-transform: none; widows: 2; word-spacing: 0px; -webkit-text-stroke-width: 0px; background-color: rgb(42, 37, 47); text-decoration-thickness: initial; text-decoration-style: initial; text-decoration-color: initial; float: none; display: inline !important;&quot;&gt;DELETE&lt;/span&gt;" style="shape=partialRectangle;html=1;whiteSpace=wrap;connectable=0;fillColor=none;top=0;left=0;bottom=0;right=0;overflow=hidden;" parent="206" vertex="1">
                    <mxGeometry x="300" width="234" height="25" as="geometry">
                        <mxRectangle width="234" height="25" as="alternateBounds"/>
                    </mxGeometry>
                </mxCell>
                <mxCell id="209" value="delete a temp param" style="shape=partialRectangle;html=1;whiteSpace=wrap;connectable=0;fillColor=none;top=0;left=0;bottom=0;right=0;overflow=hidden;" parent="206" vertex="1">
                    <mxGeometry x="534" width="233" height="25" as="geometry">
                        <mxRectangle width="233" height="25" as="alternateBounds"/>
                    </mxGeometry>
                </mxCell>
                <mxCell id="202" style="shape=tableRow;horizontal=0;startSize=0;swimlaneHead=0;swimlaneBody=0;top=0;left=0;bottom=0;right=0;collapsible=0;dropTarget=0;fillColor=none;points=[[0,0.5],[1,0.5]];portConstraint=eastwest;" parent="39" vertex="1">
                    <mxGeometry y="2337" width="767" height="25" as="geometry"/>
                </mxCell>
                <mxCell id="203" style="shape=partialRectangle;html=1;whiteSpace=wrap;connectable=0;fillColor=none;top=0;left=0;bottom=0;right=0;overflow=hidden;" parent="202" vertex="1">
                    <mxGeometry width="300" height="25" as="geometry">
                        <mxRectangle width="300" height="25" as="alternateBounds"/>
                    </mxGeometry>
                </mxCell>
                <mxCell id="204" style="shape=partialRectangle;html=1;whiteSpace=wrap;connectable=0;fillColor=none;top=0;left=0;bottom=0;right=0;overflow=hidden;" parent="202" vertex="1">
                    <mxGeometry x="300" width="234" height="25" as="geometry">
                        <mxRectangle width="234" height="25" as="alternateBounds"/>
                    </mxGeometry>
                </mxCell>
                <mxCell id="205" style="shape=partialRectangle;html=1;whiteSpace=wrap;connectable=0;fillColor=none;top=0;left=0;bottom=0;right=0;overflow=hidden;" parent="202" vertex="1">
                    <mxGeometry x="534" width="233" height="25" as="geometry">
                        <mxRectangle width="233" height="25" as="alternateBounds"/>
                    </mxGeometry>
                </mxCell>
            </root>
        </mxGraphModel>
    </diagram>
</mxfile>